<svg width="392" height="392" viewBox="0 0 392 392" fill="none" xmlns="http://www.w3.org/2000/svg">
<path d="M355.25 97.3494C343.536 102.403 330.788 106.039 317.658 107.456C331.29 99.3567 341.499 86.5617 346.369 71.4713C333.576 79.0811 319.562 84.4173 304.948 87.2431C298.841 80.7134 291.453 75.5114 283.247 71.9615C275.041 68.4116 266.191 66.5898 257.25 66.6095C221.074 66.6095 191.981 95.933 191.981 131.917C191.981 136.97 192.593 142.024 193.588 146.885C139.42 144.053 91.1094 118.174 58.9915 78.5533C53.1392 88.5491 50.0725 99.9305 50.1102 111.513C50.1102 134.176 61.6329 154.159 79.204 165.911C68.8491 165.503 58.7366 162.657 49.6891 157.604V158.408C49.6891 190.143 72.1219 216.442 102.02 222.491C96.406 223.949 90.6312 224.695 84.8313 224.711C80.5821 224.711 76.5626 224.29 72.5048 223.716C80.7735 249.594 104.852 268.39 133.525 269.003C111.092 286.574 82.9938 296.91 52.4837 296.91C47.0094 296.91 41.9563 296.718 36.7118 296.106C65.6524 314.672 99.9907 325.391 136.97 325.391C257.02 325.391 322.711 225.936 322.711 139.612C322.711 136.779 322.711 133.946 322.52 131.113C335.229 121.811 346.369 110.288 355.25 97.3494Z" fill="#FAFAFA"/>
</svg>
