<svg width="72" height="72" viewBox="0 0 72 72" fill="none" xmlns="http://www.w3.org/2000/svg">
<path d="M66.1852 20.8195C65.8265 19.4839 65.1234 18.2658 64.1461 17.2873C63.1688 16.3088 61.9516 15.6041 60.6164 15.2438C55.7016 13.9219 36 13.9219 36 13.9219C36 13.9219 16.2984 13.9219 11.3836 15.2367C10.0478 15.5959 8.83002 16.3002 7.85254 17.2789C6.87506 18.2576 6.17231 19.4763 5.81484 20.8125C4.5 25.7344 4.5 36 4.5 36C4.5 36 4.5 46.2656 5.81484 51.1805C6.53906 53.8945 8.67656 56.032 11.3836 56.7563C16.2984 58.0781 36 58.0781 36 58.0781C36 58.0781 55.7016 58.0781 60.6164 56.7563C63.3305 56.032 65.4609 53.8945 66.1852 51.1805C67.5 46.2656 67.5 36 67.5 36C67.5 36 67.5 25.7344 66.1852 20.8195ZM29.7422 45.4219V26.5781L46.0547 35.9297L29.7422 45.4219Z" fill="#FAFAFA"/>
</svg>
