<svg width="229" height="46" viewBox="0 0 229 46" fill="none" xmlns="http://www.w3.org/2000/svg">
<path d="M30.102 19.62C30.102 21.924 29.562 24.03 28.482 25.938C27.438 27.81 25.836 29.322 23.676 30.474C21.552 31.59 18.942 32.148 15.846 32.148H10.608V45H0.0240001V6.93H15.846C18.906 6.93 21.498 7.47 23.622 8.55C25.782 9.63 27.402 11.124 28.482 13.032C29.562 14.94 30.102 17.136 30.102 19.62ZM14.82 23.724C17.808 23.724 19.302 22.356 19.302 19.62C19.302 16.848 17.808 15.462 14.82 15.462H10.608V23.724H14.82ZM52.9301 14.436C56.3861 14.436 59.1221 15.606 61.1381 17.946C63.1901 20.25 64.2161 23.382 64.2161 27.342V45H53.6321V28.746C53.6321 27.018 53.1821 25.668 52.2821 24.696C51.3821 23.688 50.1761 23.184 48.6641 23.184C47.0801 23.184 45.8381 23.688 44.9381 24.696C44.0381 25.668 43.5881 27.018 43.5881 28.746V45H33.0041V5.04H43.5881V19.026C44.5241 17.658 45.7841 16.56 47.3681 15.732C48.9881 14.868 50.8421 14.436 52.9301 14.436ZM82.7676 45.378C79.7436 45.378 77.0256 44.748 74.6136 43.488C72.2376 42.228 70.3656 40.428 68.9976 38.088C67.6296 35.748 66.9456 32.994 66.9456 29.826C66.9456 26.694 67.6296 23.958 68.9976 21.618C70.4016 19.278 72.2916 17.478 74.6676 16.218C77.0796 14.958 79.7976 14.328 82.8216 14.328C85.8456 14.328 88.5456 14.958 90.9216 16.218C93.3336 17.478 95.2236 19.278 96.5916 21.618C97.9956 23.958 98.6976 26.694 98.6976 29.826C98.6976 32.958 97.9956 35.712 96.5916 38.088C95.2236 40.428 93.3336 42.228 90.9216 43.488C88.5096 44.748 85.7916 45.378 82.7676 45.378ZM82.7676 36.198C84.2436 36.198 85.4676 35.658 86.4396 34.578C87.4476 33.462 87.9516 31.878 87.9516 29.826C87.9516 27.774 87.4476 26.208 86.4396 25.128C85.4676 24.048 84.2616 23.508 82.8216 23.508C81.3816 23.508 80.1756 24.048 79.2036 25.128C78.2316 26.208 77.7456 27.774 77.7456 29.826C77.7456 31.914 78.2136 33.498 79.1496 34.578C80.0856 35.658 81.2916 36.198 82.7676 36.198ZM121.472 14.436C124.964 14.436 127.736 15.606 129.788 17.946C131.84 20.25 132.866 23.382 132.866 27.342V45H122.282V28.746C122.282 27.018 121.832 25.668 120.932 24.696C120.032 23.688 118.826 23.184 117.314 23.184C115.73 23.184 114.488 23.688 113.588 24.696C112.688 25.668 112.238 27.018 112.238 28.746V45H101.654V14.706H112.238V19.026C113.174 17.658 114.434 16.56 116.018 15.732C117.602 14.868 119.42 14.436 121.472 14.436ZM142.669 11.898C140.797 11.898 139.285 11.394 138.133 10.386C137.017 9.342 136.459 8.046 136.459 6.498C136.459 4.914 137.017 3.6 138.133 2.556C139.285 1.512 140.797 0.989997 142.669 0.989997C144.505 0.989997 145.981 1.512 147.097 2.556C148.249 3.6 148.825 4.914 148.825 6.498C148.825 8.046 148.249 9.342 147.097 10.386C145.981 11.394 144.505 11.898 142.669 11.898ZM147.907 14.706V45H137.323V14.706H147.907ZM181.529 29.502C181.529 30.33 181.475 31.158 181.367 31.986H161.333C161.441 33.642 161.891 34.884 162.683 35.712C163.511 36.504 164.555 36.9 165.815 36.9C167.579 36.9 168.839 36.108 169.595 34.524H180.881C180.413 36.612 179.495 38.484 178.127 40.14C176.795 41.76 175.103 43.038 173.051 43.974C170.999 44.91 168.731 45.378 166.247 45.378C163.259 45.378 160.595 44.748 158.255 43.488C155.951 42.228 154.133 40.428 152.801 38.088C151.505 35.748 150.857 32.994 150.857 29.826C150.857 26.658 151.505 23.922 152.801 21.618C154.097 19.278 155.897 17.478 158.201 16.218C160.541 14.958 163.223 14.328 166.247 14.328C169.235 14.328 171.881 14.94 174.185 16.164C176.489 17.388 178.289 19.152 179.585 21.456C180.881 23.724 181.529 26.406 181.529 29.502ZM170.729 26.856C170.729 25.56 170.297 24.552 169.433 23.832C168.569 23.076 167.489 22.698 166.193 22.698C164.897 22.698 163.835 23.058 163.007 23.778C162.179 24.462 161.639 25.488 161.387 26.856H170.729ZM203.41 45L197.956 37.386L193.636 45H182.026L192.124 29.286L181.594 14.706H193.474L198.928 22.32L203.302 14.706H214.912L204.598 30.15L215.29 45H203.41ZM222.198 45.432C220.326 45.432 218.814 44.928 217.662 43.92C216.546 42.876 215.988 41.562 215.988 39.978C215.988 38.394 216.546 37.08 217.662 36.036C218.814 34.992 220.326 34.47 222.198 34.47C224.034 34.47 225.51 34.992 226.626 36.036C227.778 37.08 228.354 38.394 228.354 39.978C228.354 41.526 227.778 42.822 226.626 43.866C225.51 44.91 224.034 45.432 222.198 45.432Z" fill="white"/>
</svg>
