<?xml version="1.0" encoding="utf-8"?>
<!-- Generator: Adobe Illustrator 18.1.1, SVG Export Plug-In . SVG Version: 6.00 Build 0)  -->
<svg version="1.1" id="Ñëîé_1" xmlns="http://www.w3.org/2000/svg" xmlns:xlink="http://www.w3.org/1999/xlink" x="0px" y="0px"
	 viewBox="0 0 600 400" enable-background="new 0 0 600 400" xml:space="preserve">
<g>
	<path fill="#FFFFFF" d="M144.3,244c-0.6,0.3-1.2,0.8-1.7,1.3c-0.2-7.7-5.8-10.8-12.6-6.8c-5.6,3.2-10.3,10.1-12,16.9
		c-1.4-0.2-3,0.2-4.7,1.2c-5,2.9-9,9.9-9,15.7c0,5.8,4,8.1,9,5.2l31.1-17.9c3.7-2.1,6.7-7.3,6.7-11.6C151,243.6,148,241.9,144.3,244
		z"/>
	<g>
		<path fill="#FFFFFF" d="M385.5,291.2c0,1.9-1.3,4.1-2.9,5.1c-1.6,0.9-2.9,0.2-2.9-1.7c0-1.9,1.3-4.1,2.9-5.1
			C384.2,288.6,385.5,289.3,385.5,291.2z"/>
		<path fill="#FFFFFF" d="M395,285.7c0,1.9-1.3,4.1-2.9,5.1c-1.6,0.9-2.9,0.2-2.9-1.7c0-1.9,1.3-4.1,2.9-5.1
			C393.7,283.1,395,283.8,395,285.7z"/>
		<path fill="#FFFFFF" d="M404.5,280.2c0,1.9-1.3,4.1-2.9,5.1c-1.6,0.9-2.9,0.2-2.9-1.7s1.3-4.1,2.9-5.1
			C403.2,277.6,404.5,278.4,404.5,280.2z"/>
		<path fill="#FFFFFF" d="M414,274.7c0,1.9-1.3,4.1-2.9,5.1c-1.6,0.9-2.9,0.2-2.9-1.7s1.3-4.1,2.9-5.1
			C412.7,272.1,414,272.9,414,274.7z"/>
	</g>
	<g>
		<path fill="#FFFFFF" d="M248.6,343.6c0,1.9-1.3,4.1-2.9,5.1c-1.6,0.9-2.9,0.2-2.9-1.7c0-1.9,1.3-4.1,2.9-5.1
			C247.3,341,248.6,341.7,248.6,343.6z"/>
		<path fill="#FFFFFF" d="M256.7,338.9c0,1.9-1.3,4.1-2.9,5.1c-1.6,0.9-2.9,0.2-2.9-1.7s1.3-4.1,2.9-5.1
			C255.4,336.3,256.7,337.1,256.7,338.9z"/>
		<path fill="#FFFFFF" d="M248.6,334.3c0,1.9-1.3,4.1-2.9,5.1c-1.6,0.9-2.9,0.2-2.9-1.7s1.3-4.1,2.9-5.1
			C247.3,331.6,248.6,332.4,248.6,334.3z"/>
		<path fill="#FFFFFF" d="M256.7,329.6c0,1.9-1.3,4.1-2.9,5.1c-1.6,0.9-2.9,0.2-2.9-1.7s1.3-4.1,2.9-5.1
			C255.4,327,256.7,327.7,256.7,329.6z"/>
	</g>
	<g>
		<polygon fill="#FFFFFF" points="221.5,109.6 215.6,113 215.6,106.2 221.5,102.8 		"/>
		<polygon fill="#FFFFFF" points="229.6,104.9 223.7,108.2 223.7,101.5 229.6,98.1 		"/>
		<polygon fill="#FFFFFF" points="221.5,118.4 215.7,121.8 215.7,115 221.5,111.6 		"/>
		<polygon fill="#FFFFFF" points="229.6,113.7 223.7,117.1 223.7,110.3 229.6,107 		"/>
	</g>
	<path opacity="0.2" fill="#FFFFFF" d="M460.6,42.5c-1,0.6-2,1.5-2.9,2.5c-0.1-5.6-4.2-7.9-9.2-5c-1.6,0.9-3.1,2.3-4.4,3.8
		c-2.2-3.9-6.8-4.8-12.2-1.7c-7.5,4.3-13.6,14.9-13.6,23.5c0,0.7,0.1,1.4,0.1,2c-1.1-0.3-2.4-0.1-3.8,0.8c-3.6,2.1-6.5,7.1-6.5,11.3
		s2.9,5.8,6.5,3.8l45.8-26.5c3.4-2,6.2-6.8,6.2-10.8C466.9,42.1,464.1,40.5,460.6,42.5z"/>
	<path opacity="0.5" fill="#FFFFFF" d="M468.8,49.7c-1,0.6-2,1.5-2.9,2.5c-0.1-5.6-4.2-7.9-9.2-5c-1.6,0.9-3.1,2.3-4.4,3.8
		c-2.2-3.9-6.8-4.8-12.2-1.7c-7.5,4.3-13.6,14.9-13.6,23.5c0,0.7,0.1,1.4,0.1,2c-1.1-0.3-2.4-0.1-3.8,0.8c-3.6,2.1-6.5,7.1-6.5,11.3
		c0,4.1,2.9,5.8,6.5,3.8l45.8-26.5c3.4-2,6.2-6.8,6.2-10.8S472.2,47.7,468.8,49.7z"/>
	<path fill="#FFFFFF" d="M477,56.9c-1,0.6-2,1.5-2.9,2.5c-0.1-5.6-4.2-7.9-9.2-5c-1.6,0.9-3.1,2.3-4.4,3.8
		c-2.2-3.9-6.8-4.8-12.2-1.7c-7.5,4.3-13.6,14.9-13.6,23.5c0,0.7,0.1,1.4,0.1,2c-1.1-0.3-2.4-0.1-3.8,0.8c-3.6,2.1-6.5,7.1-6.5,11.3
		c0,4.1,2.9,5.8,6.5,3.8L477,71.3c3.4-2,6.2-6.8,6.2-10.8C483.2,56.5,480.4,54.9,477,56.9z"/>
	<path fill="#FFFFFF" d="M210.7,259.1c-0.2,0-0.5-0.1-0.7-0.2c-0.4-0.3-0.7-0.7-0.7-1.2v-18.2c0-0.5,0.3-1,0.7-1.2l15.7-9.1
		c0.4-0.3,1-0.3,1.4,0c0.4,0.3,0.7,0.7,0.7,1.2v18.2c0,0.5-0.3,1-0.7,1.2l-15.7,9.1C211.2,259,211,259.1,210.7,259.1z M212.1,240.3
		v14.9l12.9-7.4v-14.9L212.1,240.3z M226.5,248.6L226.5,248.6L226.5,248.6z"/>
	<g>
		<g>
			<polygon fill="#7DC3EA" points="199.9,347.7 177.2,334.6 199.9,321.5 222.6,334.6 			"/>
			<path fill="#FFFFFF" d="M199.9,339.6c-0.3,0-0.6-0.1-0.9-0.2l-22.7-13.1c-0.5-0.3-0.9-0.9-0.9-1.5c0-0.6,0.3-1.2,0.9-1.5
				l22.7-13.1c0.5-0.3,1.2-0.3,1.7,0l22.7,13.1c0.5,0.3,0.9,0.9,0.9,1.5c0,0.6-0.3,1.2-0.9,1.5l-22.7,13.1
				C200.5,339.5,200.2,339.6,199.9,339.6z M180.7,324.8l19.2,11.1l19.2-11.1l-19.2-11.1L180.7,324.8z"/>
			<radialGradient id="SVGID_1_" cx="197.7813" cy="300.6307" r="33.8085" gradientUnits="userSpaceOnUse">
				<stop  offset="0" style="stop-color:#274F89"/>
				<stop  offset="1" style="stop-color:#173D7A"/>
			</radialGradient>
			<polygon fill="url(#SVGID_1_)" points="222.6,314.6 199.9,327.7 199.9,301.5 222.6,288.4 			"/>
			<linearGradient id="SVGID_2_" gradientUnits="userSpaceOnUse" x1="177.2439" y1="288.363" x2="237.0689" y2="288.363">
				<stop  offset="0" style="stop-color:#D4ECFF"/>
				<stop  offset="0.2385" style="stop-color:#D0EAFE"/>
				<stop  offset="0.4599" style="stop-color:#C5E2F9"/>
				<stop  offset="0.6745" style="stop-color:#B2D6F2"/>
				<stop  offset="0.8837" style="stop-color:#98C4E7"/>
				<stop  offset="1" style="stop-color:#86B8E0"/>
			</linearGradient>
			<polygon fill="url(#SVGID_2_)" points="199.9,301.5 177.2,288.4 199.9,275.3 222.6,288.4 			"/>
			<radialGradient id="SVGID_3_" cx="149.1744" cy="265.6451" r="61.1123" gradientUnits="userSpaceOnUse">
				<stop  offset="0" style="stop-color:#699DD1"/>
				<stop  offset="0.2662" style="stop-color:#6396CC"/>
				<stop  offset="0.6412" style="stop-color:#5184BD"/>
				<stop  offset="1" style="stop-color:#396CAA"/>
			</radialGradient>
			<polygon fill="url(#SVGID_3_)" points="199.9,327.7 177.2,314.6 177.2,288.4 199.9,301.5 			"/>
		</g>
		<polygon fill="#FFFFFF" points="191.8,313.5 185.4,309.8 185.4,302.5 191.8,306.2 		"/>
	</g>
	<g>
		<g>
			<polygon fill="#7DC3EA" points="453.9,206.6 431.2,193.5 453.9,180.4 476.6,193.5 			"/>
			<path fill="#FFFFFF" d="M453.9,198.5c-0.3,0-0.6-0.1-0.9-0.2l-22.7-13.1c-0.5-0.3-0.9-0.9-0.9-1.5c0-0.6,0.3-1.2,0.9-1.5
				l22.7-13.1c0.5-0.3,1.2-0.3,1.7,0l22.7,13.1c0.5,0.3,0.9,0.9,0.9,1.5c0,0.6-0.3,1.2-0.9,1.5l-22.7,13.1
				C454.5,198.5,454.2,198.5,453.9,198.5z M434.7,183.7l19.2,11.1l19.2-11.1l-19.2-11.1L434.7,183.7z"/>
			<radialGradient id="SVGID_4_" cx="451.774" cy="159.5507" r="33.8086" gradientUnits="userSpaceOnUse">
				<stop  offset="0" style="stop-color:#274F89"/>
				<stop  offset="1" style="stop-color:#173D7A"/>
			</radialGradient>
			<polygon fill="url(#SVGID_4_)" points="476.6,173.5 453.9,186.6 453.9,160.4 476.6,147.3 			"/>
			<linearGradient id="SVGID_5_" gradientUnits="userSpaceOnUse" x1="431.2366" y1="147.2829" x2="491.0616" y2="147.2829">
				<stop  offset="0" style="stop-color:#D4ECFF"/>
				<stop  offset="0.2385" style="stop-color:#D0EAFE"/>
				<stop  offset="0.4599" style="stop-color:#C5E2F9"/>
				<stop  offset="0.6745" style="stop-color:#B2D6F2"/>
				<stop  offset="0.8837" style="stop-color:#98C4E7"/>
				<stop  offset="1" style="stop-color:#86B8E0"/>
			</linearGradient>
			<polygon fill="url(#SVGID_5_)" points="453.9,160.4 431.2,147.3 453.9,134.2 476.6,147.3 			"/>
			<radialGradient id="SVGID_6_" cx="403.1671" cy="124.5651" r="61.1123" gradientUnits="userSpaceOnUse">
				<stop  offset="0" style="stop-color:#699DD1"/>
				<stop  offset="0.2662" style="stop-color:#6396CC"/>
				<stop  offset="0.6412" style="stop-color:#5184BD"/>
				<stop  offset="1" style="stop-color:#396CAA"/>
			</radialGradient>
			<polygon fill="url(#SVGID_6_)" points="453.9,186.6 431.2,173.5 431.2,147.3 453.9,160.4 			"/>
		</g>
		<polygon fill="#FFFFFF" points="445.8,172.4 439.4,168.8 439.4,161.4 445.8,165.1 		"/>
		<polygon fill="#FFFFFF" points="447.6,147.4 453.9,143.6 460.3,147.2 454,150.9 		"/>
	</g>
	<g>
		<g>
			<polygon fill="#7DC3EA" points="453.9,347.7 431.2,334.6 453.9,321.5 476.6,334.6 			"/>
			<path fill="#FFFFFF" d="M453.9,339.6c-0.3,0-0.6-0.1-0.9-0.2l-22.7-13.1c-0.5-0.3-0.9-0.9-0.9-1.5c0-0.6,0.3-1.2,0.9-1.5
				l22.7-13.1c0.5-0.3,1.2-0.3,1.7,0l22.7,13.1c0.5,0.3,0.9,0.9,0.9,1.5c0,0.6-0.3,1.2-0.9,1.5l-22.7,13.1
				C454.5,339.5,454.2,339.6,453.9,339.6z M434.7,324.8l19.2,11.1l19.2-11.1l-19.2-11.1L434.7,324.8z"/>
			<radialGradient id="SVGID_7_" cx="451.7737" cy="300.6307" r="33.8086" gradientUnits="userSpaceOnUse">
				<stop  offset="0" style="stop-color:#274F89"/>
				<stop  offset="1" style="stop-color:#173D7A"/>
			</radialGradient>
			<polygon fill="url(#SVGID_7_)" points="476.6,314.6 453.9,327.7 453.9,301.5 476.6,288.4 			"/>
			<linearGradient id="SVGID_8_" gradientUnits="userSpaceOnUse" x1="431.2363" y1="288.363" x2="491.0613" y2="288.363">
				<stop  offset="0" style="stop-color:#D4ECFF"/>
				<stop  offset="0.2385" style="stop-color:#D0EAFE"/>
				<stop  offset="0.4599" style="stop-color:#C5E2F9"/>
				<stop  offset="0.6745" style="stop-color:#B2D6F2"/>
				<stop  offset="0.8837" style="stop-color:#98C4E7"/>
				<stop  offset="1" style="stop-color:#86B8E0"/>
			</linearGradient>
			<polygon fill="url(#SVGID_8_)" points="453.9,301.5 431.2,288.4 453.9,275.3 476.6,288.4 			"/>
			<radialGradient id="SVGID_9_" cx="403.1668" cy="265.6451" r="61.1123" gradientUnits="userSpaceOnUse">
				<stop  offset="0" style="stop-color:#699DD1"/>
				<stop  offset="0.2662" style="stop-color:#6396CC"/>
				<stop  offset="0.6412" style="stop-color:#5184BD"/>
				<stop  offset="1" style="stop-color:#396CAA"/>
			</radialGradient>
			<polygon fill="url(#SVGID_9_)" points="453.9,327.7 431.2,314.6 431.2,288.4 453.9,301.5 			"/>
		</g>
		<polygon fill="#FFFFFF" points="445.8,313.5 439.4,309.8 439.4,302.5 445.8,306.2 		"/>
	</g>
	<g>
		<g>
			<polygon fill="#7DC3EA" points="199.9,206.6 177.2,193.5 199.9,180.4 222.6,193.5 			"/>
			<path fill="#FFFFFF" d="M199.9,198.5c-0.3,0-0.6-0.1-0.9-0.2l-22.7-13.1c-0.5-0.3-0.9-0.9-0.9-1.5c0-0.6,0.3-1.2,0.9-1.5
				l22.7-13.1c0.5-0.3,1.2-0.3,1.7,0l22.7,13.1c0.5,0.3,0.9,0.9,0.9,1.5c0,0.6-0.3,1.2-0.9,1.5l-22.7,13.1
				C200.5,198.5,200.2,198.5,199.9,198.5z M180.7,183.7l19.2,11.1l19.2-11.1l-19.2-11.1L180.7,183.7z"/>
			<radialGradient id="SVGID_10_" cx="197.7813" cy="159.5507" r="33.8085" gradientUnits="userSpaceOnUse">
				<stop  offset="0" style="stop-color:#274F89"/>
				<stop  offset="1" style="stop-color:#173D7A"/>
			</radialGradient>
			<polygon fill="url(#SVGID_10_)" points="222.6,173.5 199.9,186.6 199.9,160.4 222.6,147.3 			"/>
			<linearGradient id="SVGID_11_" gradientUnits="userSpaceOnUse" x1="177.2439" y1="147.2829" x2="237.0689" y2="147.2829">
				<stop  offset="0" style="stop-color:#D4ECFF"/>
				<stop  offset="0.2385" style="stop-color:#D0EAFE"/>
				<stop  offset="0.4599" style="stop-color:#C5E2F9"/>
				<stop  offset="0.6745" style="stop-color:#B2D6F2"/>
				<stop  offset="0.8837" style="stop-color:#98C4E7"/>
				<stop  offset="1" style="stop-color:#86B8E0"/>
			</linearGradient>
			<polygon fill="url(#SVGID_11_)" points="199.9,160.4 177.2,147.3 199.9,134.2 222.6,147.3 			"/>
			<radialGradient id="SVGID_12_" cx="149.1744" cy="124.5651" r="61.1123" gradientUnits="userSpaceOnUse">
				<stop  offset="0" style="stop-color:#699DD1"/>
				<stop  offset="0.2662" style="stop-color:#6396CC"/>
				<stop  offset="0.6412" style="stop-color:#5184BD"/>
				<stop  offset="1" style="stop-color:#396CAA"/>
			</radialGradient>
			<polygon fill="url(#SVGID_12_)" points="199.9,186.6 177.2,173.5 177.2,147.3 199.9,160.4 			"/>
		</g>
		<polygon fill="#FFFFFF" points="191.8,172.4 185.4,168.8 185.4,161.4 191.8,165.1 		"/>
	</g>
	
		<rect x="407.5" y="148.2" transform="matrix(0.4999 0.8661 -0.8661 0.4999 366.067 -261.2792)" fill="#FFFFFF" width="3.4" height="76.2"/>
	<g>
		<path fill="#7DC3EA" d="M321.6,299.1l-58.2-33.6c-2.1-1.2-1.9-3.4,0.6-4.8l61.7-35.7c2.5-1.4,6.2-1.6,8.3-0.3l58.2,33.6
			c2.1,1.2,1.9,3.4-0.6,4.8l-61.7,35.7C327.4,300.2,323.7,300.4,321.6,299.1z"/>
		<path fill="#FFFFFF" d="M325.2,288.1c-1.7,0-3.3-0.3-4.5-1.1l-58.2-33.6c-1.5-0.8-2.3-2.1-2.3-3.6c0-1.6,1.1-3.1,2.9-4.2
			l61.7-35.7c3-1.7,7.4-1.9,10-0.3l58.2,33.6c1.5,0.8,2.3,2.1,2.3,3.6c0,1.6-1.1,3.1-2.9,4.2l-61.7,35.7
			C329.1,287.6,327.1,288.1,325.2,288.1z M322.4,284.1c1.6,0.9,4.7,0.8,6.6-0.3l61.7-35.7c0.9-0.5,1.2-1,1.2-1.2
			c0-0.1-0.2-0.4-0.6-0.6l-58.2-33.6c-1.6-0.9-4.7-0.8-6.6,0.3l-61.7,35.7c-0.9,0.5-1.2,1-1.2,1.2c0,0.1,0.2,0.4,0.6,0.6
			L322.4,284.1z"/>
		<g>
			<g>
				<g>
					<g>
						<g>
							<g>
								<radialGradient id="SVGID_13_" cx="302.7339" cy="155.1463" r="121.6493" gradientUnits="userSpaceOnUse">
									<stop  offset="0" style="stop-color:#396CAA"/>
									<stop  offset="1" style="stop-color:#274F89"/>
								</radialGradient>
								<path fill="url(#SVGID_13_)" d="M325.8,122.3c0,0-31.9,3-51.2,4.5l51,145.3l67.5-38.9c0,0,0,0,0,0l0.1-0.1l0,0
									c0.8-0.5,1.4-1.7,1.4-3.3v-142c0-1.5-0.4-3.1-1.2-4.5L325.8,122.3z"/>
								<linearGradient id="SVGID_14_" gradientUnits="userSpaceOnUse" x1="264.4693" y1="68.8464" x2="377.9015" y2="137.9586">
									<stop  offset="0" style="stop-color:#D4ECFF"/>
									<stop  offset="0.2385" style="stop-color:#D0EAFE"/>
									<stop  offset="0.4599" style="stop-color:#C5E2F9"/>
									<stop  offset="0.6745" style="stop-color:#B2D6F2"/>
									<stop  offset="0.8837" style="stop-color:#98C4E7"/>
									<stop  offset="1" style="stop-color:#86B8E0"/>
								</linearGradient>
								<path fill="url(#SVGID_14_)" d="M390.5,79.8l-59.4-34.3c-1-0.6-2-0.6-2.7-0.2l0,0l-67.8,39.1l3.2,11.8l17,48.4l3.2,1.8
									l109.4-63.2C392.7,81.8,391.6,80.5,390.5,79.8z"/>
								<path fill="#5793CE" d="M322.7,272.1l-59.4-34.3c-2.3-1.3-4.2-4.9-4.2-8v-142c0-3.1,1.9-4.5,4.2-3.2l59.4,34.3
									c2.3,1.3,4.2,4.9,4.2,8v142C326.9,272,325.1,273.4,322.7,272.1z"/>
								<path fill="#FFFFFF" d="M324,118.2l-59.4-34.3c-1.3-0.8-2.5-0.6-3.3,0.2c0.6-0.1,1.3,0.1,2,0.5l59.4,34.3
									c2.3,1.3,4.2,4.9,4.2,8v142c0,1.3-0.3,2.3-0.9,2.9c1.3-0.2,2.2-1.5,2.2-3.6v-142C328.2,123.1,326.3,119.5,324,118.2z"/>
								
									<linearGradient id="SVGID_15_" gradientUnits="userSpaceOnUse" x1="-48.2165" y1="1351.5154" x2="18.4448" y2="1336.4098" gradientTransform="matrix(0.866 0.5 0 1.1547 302.9394 -1367.5654)">
									<stop  offset="0" style="stop-color:#3919BB"/>
									<stop  offset="1" style="stop-color:#6507FA"/>
								</linearGradient>
								<path fill="url(#SVGID_15_)" d="M319,263.5l-51.9-30c-2-1.2-3.7-4.3-3.7-7V94.7c0-2.7,1.6-3.9,3.7-2.8l51.9,30
									c2,1.2,3.7,4.3,3.7,7v131.9C322.7,263.4,321,264.7,319,263.5z"/>
								
									<linearGradient id="SVGID_16_" gradientUnits="userSpaceOnUse" x1="-48.2165" y1="1351.5154" x2="18.4448" y2="1336.4098" gradientTransform="matrix(0.866 0.5 0 1.1547 302.9394 -1367.5654)">
									<stop  offset="0" style="stop-color:#3919BB"/>
									<stop  offset="1" style="stop-color:#6507FA"/>
								</linearGradient>
								<path fill="url(#SVGID_16_)" d="M319,263.5l-51.9-30c-2-1.2-3.7-4.3-3.7-7V94.7c0-2.7,1.6-3.9,3.7-2.8l51.9,30
									c2,1.2,3.7,4.3,3.7,7v131.9C322.7,263.4,321,264.7,319,263.5z"/>
								<path fill="#173D7A" d="M319,263.5l-51.9-30c-2-1.2-3.7-4.3-3.7-7V94.7c0-2.7,1.6-3.9,3.7-2.8l51.9,30c2,1.2,3.7,4.3,3.7,7
									v131.9C322.7,263.4,321,264.7,319,263.5z"/>
								<path fill="#396CAA" d="M320.7,262.5l-51.9-30c-2-1.2-3.7-4.3-3.7-7V93.7c0-0.9,0.2-1.7,0.5-2.2c-1.3,0-2.2,1.2-2.2,3.2
									v131.9c0,2.7,1.6,5.8,3.7,7l51.9,30c1.3,0.8,2.5,0.5,3.1-0.6C321.7,262.9,321.2,262.8,320.7,262.5z"/>
							</g>
						</g>
					</g>
					<g>
						<g>
							<path fill="#173D7A" d="M319,202.9l-19.3-11.1L269,209.6l53.7,31v-30.6C322.7,207.2,321,204.1,319,202.9z"/>
							<path fill="#173D7A" d="M319,175.9l-19.3-11.1L269,182.5l53.7,31v-30.6C322.7,180.2,321,177.1,319,175.9z"/>
							<path fill="#173D7A" d="M319,148.9l-19.3-11.1L269,155.5l53.7,31v-30.6C322.7,153.2,321,150,319,148.9z"/>
							<path fill="#173D7A" d="M319,121.8l-19.3-11.1L269,128.5l53.7,31v-30.6C322.7,126.1,321,123,319,121.8z"/>
							<path fill="#173D7A" d="M319,121.8l-42.7-24.6l-7.3,4.2l53.7,31v-3.6C322.7,126.1,321,123,319,121.8z"/>
						</g>
						<polygon fill="#5793CE" points="322.7,132.4 269,101.4 269,118.5 322.7,149.5 						"/>
						<polygon fill="#5793CE" points="322.7,159.5 269,128.5 269,145.6 322.7,176.6 						"/>
						<polygon fill="#5793CE" points="322.7,186.5 269,155.5 269,172.6 322.7,203.6 						"/>
						<polygon fill="#5793CE" points="322.7,213.5 269,182.5 269,199.6 322.7,230.6 						"/>
						<polygon fill="#5793CE" points="322.7,240.6 269,209.6 269,226.6 322.7,257.6 						"/>
					</g>
					<g>
						<path fill="#173D7A" d="M317.9,143.4l-40.4-23.4c-1.1-0.7-2.1-2.4-2.1-4v-4.6c0-1.5,0.9-2.2,2.1-1.6l40.4,23.4
							c1.1,0.7,2.1,2.4,2.1,4v4.6C320,143.4,319.1,144.1,317.9,143.4z"/>
						<path opacity="0.3" fill="#06033E" d="M279.5,119.2c-1.1-0.7-2.1-2.4-2.1-4v-4.6c0-0.2,0-0.5,0.1-0.7l-0.1,0
							c-1.1-0.7-2.1,0-2.1,1.6v4.6c0,1.5,0.9,3.3,2.1,4l40.4,23.4c1,0.6,1.8,0.1,2-0.9L279.5,119.2z"/>
						<path fill="#FFFFFF" d="M305.2,130.9l-24.3-14.1c-0.4-0.2-0.7-0.9-0.7-1.4l0,0c0-0.5,0.3-0.8,0.7-0.5l24.3,14.1
							c0.4,0.2,0.7,0.9,0.7,1.4l0,0C306,130.9,305.6,131.1,305.2,130.9z"/>
					</g>
					<g>
						<path fill="#173D7A" d="M317.9,170.3L277.5,147c-1.1-0.7-2.1-2.4-2.1-4v-4.6c0-1.5,0.9-2.2,2.1-1.6l40.4,23.4
							c1.1,0.7,2.1,2.4,2.1,4v4.6C320,170.3,319.1,171,317.9,170.3z"/>
						<path opacity="0.3" fill="#06033E" d="M279.5,146.1c-1.1-0.7-2.1-2.4-2.1-4v-4.6c0-0.2,0-0.5,0.1-0.7l-0.1,0
							c-1.1-0.7-2.1,0-2.1,1.6v4.6c0,1.5,0.9,3.3,2.1,4l40.4,23.4c1,0.6,1.8,0.1,2-0.9L279.5,146.1z"/>
						<path fill="#FFFFFF" d="M305.2,157.8l-24.3-14.1c-0.4-0.2-0.7-0.9-0.7-1.4l0,0c0-0.5,0.3-0.8,0.7-0.5l24.3,14.1
							c0.4,0.2,0.7,0.9,0.7,1.4l0,0C306,157.7,305.6,158,305.2,157.8z"/>
					</g>
					<g>
						<path fill="#173D7A" d="M317.9,197.4l-40.4-23.4c-1.1-0.7-2.1-2.4-2.1-4v-4.6c0-1.5,0.9-2.2,2.1-1.6l40.4,23.4
							c1.1,0.7,2.1,2.4,2.1,4v4.6C320,197.4,319.1,198.1,317.9,197.4z"/>
						<path opacity="0.3" fill="#06033E" d="M279.5,173.2c-1.1-0.7-2.1-2.4-2.1-4v-4.6c0-0.2,0-0.5,0.1-0.7l-0.1,0
							c-1.1-0.7-2.1,0-2.1,1.6v4.6c0,1.5,0.9,3.3,2.1,4l40.4,23.4c1,0.6,1.8,0.1,2-0.9L279.5,173.2z"/>
						<path fill="#D4ECFF" d="M305.2,184.9l-24.3-14.1c-0.4-0.2-0.7-0.9-0.7-1.4l0,0c0-0.5,0.3-0.8,0.7-0.5l24.3,14.1
							c0.4,0.2,0.7,0.9,0.7,1.4l0,0C306,184.9,305.6,185.1,305.2,184.9z"/>
					</g>
					<g>
						<path fill="#173D7A" d="M317.9,224.8l-40.4-23.4c-1.1-0.7-2.1-2.4-2.1-4v-4.6c0-1.5,0.9-2.2,2.1-1.6l40.4,23.4
							c1.1,0.7,2.1,2.4,2.1,4v4.6C320,224.7,319.1,225.4,317.9,224.8z"/>
						<path opacity="0.3" fill="#06033E" d="M279.5,200.6c-1.1-0.7-2.1-2.4-2.1-4V192c0-0.2,0-0.5,0.1-0.7l-0.1,0
							c-1.1-0.7-2.1,0-2.1,1.6v4.6c0,1.5,0.9,3.3,2.1,4l40.4,23.4c1,0.6,1.8,0.1,2-0.9L279.5,200.6z"/>
						<path fill="#FF2C9C" d="M305.2,212.2l-24.3-14.1c-0.4-0.2-0.7-0.9-0.7-1.4l0,0c0-0.5,0.3-0.8,0.7-0.5l24.3,14.1
							c0.4,0.2,0.7,0.9,0.7,1.4l0,0C306,212.2,305.6,212.5,305.2,212.2z"/>
					</g>
					<g>
						<path fill="#173D7A" d="M317.9,251.6l-40.4-23.4c-1.1-0.7-2.1-2.4-2.1-4v-4.6c0-1.5,0.9-2.2,2.1-1.6l40.4,23.4
							c1.1,0.7,2.1,2.4,2.1,4v4.6C320,251.6,319.1,252.3,317.9,251.6z"/>
						<path opacity="0.3" fill="#06033E" d="M279.5,227.4c-1.1-0.7-2.1-2.4-2.1-4v-4.6c0-0.2,0-0.5,0.1-0.7l-0.1,0
							c-1.1-0.7-2.1,0-2.1,1.6v4.6c0,1.5,0.9,3.3,2.1,4l40.4,23.4c1,0.6,1.8,0.1,2-0.9L279.5,227.4z"/>
						<path fill="#D4ECFF" d="M305.2,239.1L280.9,225c-0.4-0.2-0.7-0.9-0.7-1.4l0,0c0-0.5,0.3-0.8,0.7-0.5l24.3,14.1
							c0.4,0.2,0.7,0.9,0.7,1.4l0,0C306,239,305.6,239.3,305.2,239.1z"/>
					</g>
					<polygon opacity="0.5" fill="#173D7A" points="269,101.4 273.2,103.9 273.2,121 269,118.5 					"/>
					<polygon opacity="0.5" fill="#173D7A" points="269,128.5 273.2,130.9 273.2,148 269,145.6 					"/>
					<polygon opacity="0.5" fill="#173D7A" points="269,155.5 273.2,157.9 273.2,175 269,172.6 					"/>
					<polygon opacity="0.5" fill="#173D7A" points="269,182.5 273.2,185 273.2,202.1 269,199.6 					"/>
					<polygon opacity="0.5" fill="#173D7A" points="269,209.6 273.2,212 273.2,229.1 269,226.6 					"/>
				</g>
				<path fill="#D4ECFF" d="M310,132.6c0,0.5-0.4,0.8-0.9,0.5c-0.5-0.3-0.9-0.9-0.9-1.5c0-0.5,0.4-0.8,0.9-0.5
					C309.6,131.4,310,132,310,132.6z"/>
				<path fill="#FF2C9C" d="M313.7,134.7c0,0.5-0.4,0.8-0.9,0.5c-0.5-0.3-0.9-0.9-0.9-1.5c0-0.5,0.4-0.8,0.9-0.5
					C313.3,133.5,313.7,134.1,313.7,134.7z"/>
				<path fill="#D4ECFF" d="M317.3,136.8c0,0.5-0.4,0.8-0.9,0.5c-0.5-0.3-0.9-0.9-0.9-1.5s0.4-0.8,0.9-0.5
					C316.9,135.6,317.3,136.2,317.3,136.8z"/>
				<path fill="#FF2C9C" d="M310,159.6c0,0.5-0.4,0.8-0.9,0.5c-0.5-0.3-0.9-0.9-0.9-1.5s0.4-0.8,0.9-0.5
					C309.6,158.4,310,159.1,310,159.6z"/>
				<path fill="#D4ECFF" d="M313.7,161.7c0,0.5-0.4,0.8-0.9,0.5c-0.5-0.3-0.9-0.9-0.9-1.5s0.4-0.8,0.9-0.5
					C313.3,160.5,313.7,161.2,313.7,161.7z"/>
				<path fill="#FFFFFF" d="M317.3,163.8c0,0.5-0.4,0.8-0.9,0.5c-0.5-0.3-0.9-0.9-0.9-1.5c0-0.5,0.4-0.8,0.9-0.5
					C316.9,162.6,317.3,163.2,317.3,163.8z"/>
				<path fill="#FFFFFF" d="M310,186.8c0,0.5-0.4,0.8-0.9,0.5c-0.5-0.3-0.9-0.9-0.9-1.5s0.4-0.8,0.9-0.5
					C309.6,185.6,310,186.3,310,186.8z"/>
				<path fill="#FF2C9C" d="M313.7,188.9c0,0.5-0.4,0.8-0.9,0.5c-0.5-0.3-0.9-0.9-0.9-1.5s0.4-0.8,0.9-0.5
					C313.3,187.7,313.7,188.4,313.7,188.9z"/>
				<path fill="#FFFFFF" d="M317.3,191c0,0.5-0.4,0.8-0.9,0.5c-0.5-0.3-0.9-0.9-0.9-1.5s0.4-0.8,0.9-0.5
					C316.9,189.8,317.3,190.5,317.3,191z"/>
				<path fill="#FFFFFF" d="M310,213.6c0,0.5-0.4,0.8-0.9,0.5c-0.5-0.3-0.9-0.9-0.9-1.5s0.4-0.8,0.9-0.5
					C309.6,212.4,310,213.1,310,213.6z"/>
				<path fill="#D4ECFF" d="M313.7,215.7c0,0.5-0.4,0.8-0.9,0.5c-0.5-0.3-0.9-0.9-0.9-1.5s0.4-0.8,0.9-0.5
					C313.3,214.5,313.7,215.2,313.7,215.7z"/>
				<path fill="#D4ECFF" d="M317.3,217.8c0,0.5-0.4,0.8-0.9,0.5c-0.5-0.3-0.9-0.9-0.9-1.5c0-0.5,0.4-0.8,0.9-0.5
					C316.9,216.6,317.3,217.3,317.3,217.8z"/>
				<path fill="#FFFFFF" d="M310,240.8c0,0.5-0.4,0.8-0.9,0.5c-0.5-0.3-0.9-0.9-0.9-1.5c0-0.5,0.4-0.8,0.9-0.5
					C309.6,239.6,310,240.3,310,240.8z"/>
				<path fill="#FF2C9C" d="M313.7,242.9c0,0.5-0.4,0.8-0.9,0.5c-0.5-0.3-0.9-0.9-0.9-1.5s0.4-0.8,0.9-0.5
					C313.3,241.7,313.7,242.4,313.7,242.9z"/>
				<path fill="#D4ECFF" d="M317.3,245c0,0.5-0.4,0.8-0.9,0.5c-0.5-0.3-0.9-0.9-0.9-1.5s0.4-0.8,0.9-0.5
					C316.9,243.8,317.3,244.5,317.3,245z"/>
				<g>
					<path fill="#173D7A" d="M335.9,252.9V131.9l0.3-0.1l50.5-29.2v120.9l-0.3,0.1L335.9,252.9z M336.9,132.5v118.6l48.8-28.2V104.3
						L336.9,132.5z"/>
				</g>
				<g>
					<path fill="#173D7A" d="M373.5,157l-22.7,13.1c-1.5,0.9-2.8-0.1-2.8-2.1v-12.6c0-2,1.2-4.4,2.8-5.3l22.7-13.1
						c1.5-0.9,2.8,0.1,2.8,2.1v12.6C376.3,153.8,375.1,156.1,373.5,157z"/>
					<path fill="#5793CE" d="M374.1,136.8c0.1,0.4,0.2,0.8,0.2,1.3v12.6c0,2-1.2,4.4-2.8,5.3L348.9,169c-0.2,0.1-0.4,0.2-0.5,0.2
						c0.4,1.1,1.4,1.5,2.6,0.8l22.7-13.1c1.5-0.9,2.8-3.2,2.8-5.3v-12.6C376.3,137.4,375.3,136.5,374.1,136.8z"/>
					<g>
						<g>
							<path fill="#FFFFFF" d="M369.4,149.4c0.4-0.2,0.8,0,0.8,0.4v2.9c0,0.5-0.3,1.1-0.8,1.3c-0.4,0.2-0.8,0-0.8-0.4v-2.9
								C368.6,150.3,369,149.7,369.4,149.4z"/>
							<path fill="#D4ECFF" d="M366.1,151.7c0.4-0.2,0.8,0,0.8,0.4v2.5c0,0.5-0.3,1.1-0.8,1.3c-0.4,0.2-0.8,0-0.8-0.4V153
								C365.4,152.5,365.7,151.9,366.1,151.7z"/>
							<path fill="#FF2C9C" d="M362.9,150.7c0.4-0.2,0.8,0,0.8,0.4v5.3c0,0.5-0.3,1.1-0.8,1.3c-0.4,0.2-0.8,0-0.8-0.4v-5.3
								C362.1,151.6,362.5,151,362.9,150.7z"/>
							<path fill="#D4ECFF" d="M359.6,149.6c0.4-0.2,0.8,0,0.8,0.4v8.4c0,0.5-0.3,1.1-0.8,1.3c-0.4,0.2-0.8,0-0.8-0.4v-8.4
								C358.9,150.4,359.2,149.8,359.6,149.6z"/>
							<path fill="#D4ECFF" d="M356.4,152.3c0.4-0.2,0.8,0,0.8,0.4v7.5c0,0.5-0.3,1.1-0.8,1.3c-0.4,0.2-0.8,0-0.8-0.4v-7.5
								C355.6,153.2,356,152.6,356.4,152.3z"/>
							<path fill="#FFFFFF" d="M353.1,157.6c0.4-0.2,0.8,0,0.8,0.4v4.1c0,0.5-0.3,1.1-0.8,1.3c-0.4,0.2-0.8,0-0.8-0.4v-4.1
								C352.4,158.4,352.7,157.9,353.1,157.6z"/>
						</g>
						<path fill="#FF2C9C" d="M368.6,148c0,0.5,0.3,0.7,0.7,0.4c0.4-0.2,0.7-0.8,0.7-1.3s-0.3-0.7-0.7-0.4
							C369,146.9,368.6,147.5,368.6,148z"/>
						<path fill="#FFFFFF" d="M368.6,145.3c0,0.5,0.3,0.7,0.7,0.4c0.4-0.2,0.7-0.8,0.7-1.3s-0.3-0.7-0.7-0.4
							C369,144.2,368.6,144.8,368.6,145.3z"/>
					</g>
				</g>
			</g>
		</g>
	</g>
	<rect x="452.2" y="80.4" fill="#FFFFFF" width="3.4" height="66.9"/>
	<g>
		<path fill="#7DC3EA" d="M323.1,360.5l-34.7-20c-2.1-1.2-1.9-3.4,0.6-4.8l33.5-19.3c2.5-1.4,6.2-1.6,8.3-0.3l34.7,20
			c2.1,1.2,1.9,3.4-0.6,4.8l-33.5,19.3C328.9,361.6,325.2,361.7,323.1,360.5z"/>
		<path fill="#FFFFFF" d="M326.7,352.4c-1.7,0-3.3-0.4-4.6-1.1h0l-34.7-20c-1.5-0.9-2.4-2.3-2.4-3.8c0-1.7,1.1-3.3,3-4.4l33.5-19.3
			c3.1-1.8,7.5-1.9,10.3-0.3l34.7,20c1.5,0.9,2.4,2.3,2.4,3.8c0,1.7-1.1,3.3-3,4.4l-33.5,19.3C330.7,351.9,328.7,352.4,326.7,352.4z
			 M324.1,347.9c1.5,0.9,4.5,0.7,6.3-0.3l33.5-19.3c0.8-0.5,1-0.9,1-1c0,0-0.1-0.2-0.5-0.4l-34.7-20c-1.5-0.9-4.5-0.7-6.3,0.3
			L290,326.5c-0.8,0.5-1,0.9-1,1c0,0,0.1,0.2,0.5,0.4L324.1,347.9L324.1,347.9z"/>
		<path fill="#396CAA" d="M366.9,314.9L366.9,314.9v-12l-26.8,0l-9.3-5.4c-2.1-1.2-5.8-1.1-8.3,0.3l-8.6,5l-26.8,0v12.3
			c-0.1,0.8,0.4,1.6,1.4,2.2l34.7,20c2.1,1.2,5.8,1.1,8.3-0.3l33.5-19.3C366.2,317,366.9,315.9,366.9,314.9z"/>
		<radialGradient id="SVGID_17_" cx="289.1855" cy="299.4403" r="43.8038" gradientUnits="userSpaceOnUse">
			<stop  offset="0" style="stop-color:#699DD1"/>
			<stop  offset="0.2662" style="stop-color:#6396CC"/>
			<stop  offset="0.6412" style="stop-color:#5184BD"/>
			<stop  offset="1" style="stop-color:#396CAA"/>
		</radialGradient>
		<path fill="url(#SVGID_17_)" d="M326.9,296.8c-1.6,0-3.2,0.4-4.4,1.2l-8.6,5l-26.8,0v12.3c-0.1,0.8,0.4,1.6,1.4,2.2l34.7,20
			c1,0.6,2.4,0.9,3.9,0.8V296.8z"/>
		<path fill="#D4ECFF" d="M290,302.9l-3,0v12.3c-0.1,0.8,0.4,1.6,1.4,2.2l1.6,0.9V302.9z"/>
		<path fill="#5793CE" d="M323.6,337.7c1.8,0.8,4.5,0.7,6.6-0.1v-14h-6.6V337.7z"/>
		<linearGradient id="SVGID_18_" gradientUnits="userSpaceOnUse" x1="297.4532" y1="285.396" x2="366.0677" y2="326.303">
			<stop  offset="0" style="stop-color:#D4ECFF"/>
			<stop  offset="0.2009" style="stop-color:#D0EAFE"/>
			<stop  offset="0.3874" style="stop-color:#C5E2F9"/>
			<stop  offset="0.5682" style="stop-color:#B2D6F2"/>
			<stop  offset="0.7444" style="stop-color:#98C4E7"/>
			<stop  offset="0.8423" style="stop-color:#86B8E0"/>
		</linearGradient>
		<path fill="url(#SVGID_18_)" d="M323.1,325.2l-34.7-20c-2.1-1.2-1.9-3.4,0.6-4.8l33.5-19.3c2.5-1.4,6.2-1.6,8.3-0.3l34.7,20
			c2.1,1.2,1.9,3.4-0.6,4.8l-33.5,19.3C328.9,326.3,325.2,326.4,323.1,325.2z"/>
		<path fill="#FFFFFF" d="M364.8,303.2l-33.5,19.3c-2.5,1.4-6.2,1.6-8.3,0.3l-34.7-20c-0.5-0.3-0.8-0.6-1.1-0.9
			c-0.7,1.2-0.4,2.5,1.1,3.3l34.7,20c2.1,1.2,5.8,1.1,8.3-0.3l33.5-19.3c1.9-1.1,2.5-2.6,1.7-3.8
			C366.2,302.2,365.6,302.7,364.8,303.2z"/>
		<g>
			<path fill="#D4ECFF" d="M354.1,318.1c0,0.9-0.6,2-1.4,2.4c-0.8,0.4-1.4,0.1-1.4-0.8c0-0.9,0.6-2,1.4-2.4
				C353.5,316.8,354.1,317.2,354.1,318.1z"/>
			<path fill="#D4ECFF" d="M358.6,315.5c0,0.9-0.6,2-1.4,2.4c-0.8,0.4-1.4,0.1-1.4-0.8c0-0.9,0.6-2,1.4-2.4S358.6,314.6,358.6,315.5
				z"/>
			<path fill="#D4ECFF" d="M363.1,312.9c0,0.9-0.6,2-1.4,2.4c-0.8,0.4-1.4,0.1-1.4-0.8c0-0.9,0.6-2,1.4-2.4
				C362.5,311.6,363.1,312,363.1,312.9z"/>
		</g>
		<g>
			<path fill="#5793CE" d="M325.1,312.8l-16.2-9.4c-1-0.6-0.9-1.6,0.3-2.2l15.7-9c1.1-0.7,2.9-0.7,3.9-0.2l16.2,9.4
				c1,0.6,0.9,1.6-0.3,2.2l-15.7,9C327.9,313.3,326.1,313.4,325.1,312.8z"/>
			<path fill="#D4ECFF" d="M326.7,305l-2.2-1.3c-0.1-0.1-0.1-0.2,0-0.3l2.2-1.3c0.2-0.1,0.4-0.1,0.5,0l2.2,1.3
				c0.1,0.1,0.1,0.2,0,0.3l-2.2,1.3C327.1,305,326.8,305,326.7,305z"/>
			<path fill="#396CAA" d="M308.9,303.4L308.9,303.4c0.1,0,0.2-0.1,0.3-0.1l15.7-9c1.1-0.7,2.9-0.7,3.9-0.2l16.2,9.3
				c0.9-0.7,1-1.6,0-2.1l-16.2-9.4c-1-0.6-2.7-0.5-3.9,0.2l-15.7,9C308,301.8,307.9,302.9,308.9,303.4z"/>
		</g>
	</g>
	<g>
		<path fill="#7DC3EA" d="M450.1,272.2l-34.7-20c-2.1-1.2-1.9-3.4,0.6-4.8l33.5-19.3c2.5-1.4,6.2-1.6,8.3-0.3l34.7,20
			c2.1,1.2,1.9,3.4-0.6,4.8l-33.5,19.3C455.9,273.3,452.2,273.5,450.1,272.2z"/>
		<path fill="#FFFFFF" d="M453.7,264.1c-1.7,0-3.3-0.4-4.6-1.1h0l-34.7-20c-1.5-0.9-2.4-2.3-2.4-3.8c0-1.7,1.1-3.3,3-4.4l33.5-19.3
			c3.1-1.8,7.5-1.9,10.3-0.3l34.7,20c1.5,0.9,2.4,2.3,2.4,3.8c0,1.7-1.1,3.3-3,4.4l-33.5,19.3C457.7,263.6,455.7,264.1,453.7,264.1z
			 M451.1,259.6c1.5,0.9,4.5,0.7,6.3-0.3l33.5-19.3c0.8-0.5,1-0.9,1-1c0,0-0.1-0.2-0.5-0.4l-34.7-20c-1.5-0.9-4.5-0.7-6.3,0.3
			L417,238.2c-0.8,0.5-1,0.9-1,1c0,0,0.1,0.2,0.5,0.4L451.1,259.6L451.1,259.6z"/>
		<path fill="#396CAA" d="M493.9,226.6L493.9,226.6v-12l-26.8,0l-9.3-5.4c-2.1-1.2-5.8-1.1-8.3,0.3l-8.6,5l-26.8,0v12.3
			c-0.1,0.8,0.4,1.6,1.4,2.2l34.7,20c2.1,1.2,5.8,1.1,8.3-0.3l33.5-19.3C493.2,228.7,493.9,227.6,493.9,226.6z"/>
		<radialGradient id="SVGID_19_" cx="416.185" cy="211.1573" r="43.8039" gradientUnits="userSpaceOnUse">
			<stop  offset="0" style="stop-color:#699DD1"/>
			<stop  offset="0.2662" style="stop-color:#6396CC"/>
			<stop  offset="0.6412" style="stop-color:#5184BD"/>
			<stop  offset="1" style="stop-color:#396CAA"/>
		</radialGradient>
		<path fill="url(#SVGID_19_)" d="M453.9,208.5c-1.6,0-3.2,0.4-4.4,1.2l-8.6,5l-26.8,0v12.3c-0.1,0.8,0.4,1.6,1.4,2.2l34.7,20
			c1,0.6,2.4,0.9,3.9,0.8V208.5z"/>
		<path fill="#D4ECFF" d="M417,214.6l-3,0v12.3c-0.1,0.8,0.4,1.6,1.4,2.2l1.6,0.9V214.6z"/>
		<path fill="#5793CE" d="M450.6,249.4c1.8,0.8,4.5,0.7,6.6-0.1v-14h-6.6V249.4z"/>
		<linearGradient id="SVGID_20_" gradientUnits="userSpaceOnUse" x1="424.4526" y1="197.113" x2="493.0672" y2="238.0201">
			<stop  offset="0" style="stop-color:#D4ECFF"/>
			<stop  offset="0.2009" style="stop-color:#D0EAFE"/>
			<stop  offset="0.3874" style="stop-color:#C5E2F9"/>
			<stop  offset="0.5682" style="stop-color:#B2D6F2"/>
			<stop  offset="0.7444" style="stop-color:#98C4E7"/>
			<stop  offset="0.8423" style="stop-color:#86B8E0"/>
		</linearGradient>
		<path fill="url(#SVGID_20_)" d="M450.1,236.9l-34.7-20c-2.1-1.2-1.9-3.4,0.6-4.8l33.5-19.3c2.5-1.4,6.2-1.6,8.3-0.3l34.7,20
			c2.1,1.2,1.9,3.4-0.6,4.8l-33.5,19.3C455.9,238,452.2,238.1,450.1,236.9z"/>
		<path fill="#FFFFFF" d="M491.8,214.9l-33.5,19.3c-2.5,1.4-6.2,1.6-8.3,0.3l-34.7-20c-0.5-0.3-0.8-0.6-1.1-0.9
			c-0.7,1.2-0.4,2.5,1.1,3.3l34.7,20c2.1,1.2,5.8,1.1,8.3-0.3l33.5-19.3c1.9-1.1,2.5-2.6,1.7-3.8
			C493.2,213.9,492.6,214.5,491.8,214.9z"/>
		<g>
			<path fill="#D4ECFF" d="M481.1,229.8c0,0.9-0.6,2-1.4,2.4c-0.8,0.4-1.4,0.1-1.4-0.8c0-0.9,0.6-2,1.4-2.4
				C480.5,228.5,481.1,228.9,481.1,229.8z"/>
			<path fill="#D4ECFF" d="M485.6,227.2c0,0.9-0.6,2-1.4,2.4c-0.8,0.4-1.4,0.1-1.4-0.8s0.6-2,1.4-2.4
				C485,225.9,485.6,226.3,485.6,227.2z"/>
			<path fill="#D4ECFF" d="M490.1,224.6c0,0.9-0.6,2-1.4,2.4s-1.4,0.1-1.4-0.8c0-0.9,0.6-2,1.4-2.4
				C489.5,223.3,490.1,223.7,490.1,224.6z"/>
		</g>
		<g>
			<path fill="#5793CE" d="M452.1,224.5l-16.2-9.4c-1-0.6-0.9-1.6,0.3-2.2l15.7-9c1.1-0.7,2.9-0.7,3.9-0.2l16.2,9.4
				c1,0.6,0.9,1.6-0.3,2.2l-15.7,9C454.9,225,453.1,225.1,452.1,224.5z"/>
			<path fill="#D4ECFF" d="M453.7,216.7l-2.2-1.3c-0.1-0.1-0.1-0.2,0-0.3l2.2-1.3c0.2-0.1,0.4-0.1,0.5,0l2.2,1.3
				c0.1,0.1,0.1,0.2,0,0.3l-2.2,1.3C454,216.7,453.8,216.7,453.7,216.7z"/>
			<path fill="#396CAA" d="M435.9,215.1L435.9,215.1c0.1,0,0.2-0.1,0.3-0.1l15.7-9c1.1-0.7,2.9-0.7,3.9-0.2l16.2,9.3
				c0.9-0.7,1-1.6,0-2.1l-16.2-9.4c-1-0.6-2.7-0.5-3.9,0.2l-15.7,9C435,213.6,434.9,214.6,435.9,215.1z"/>
		</g>
	</g>
	<g>
		<path fill="#7DC3EA" d="M196.1,272.2l-34.7-20c-2.1-1.2-1.9-3.4,0.6-4.8l33.5-19.3c2.5-1.4,6.2-1.6,8.3-0.3l34.7,20
			c2.1,1.2,1.9,3.4-0.6,4.8l-33.5,19.3C201.9,273.3,198.2,273.5,196.1,272.2z"/>
		<path fill="#FFFFFF" d="M199.7,264.1c-1.7,0-3.3-0.4-4.6-1.1h0l-34.7-20c-1.5-0.9-2.4-2.3-2.4-3.8c0-1.7,1.1-3.3,3-4.4l33.5-19.3
			c3.1-1.8,7.5-1.9,10.3-0.3l34.7,20c1.5,0.9,2.4,2.3,2.4,3.8c0,1.7-1.1,3.3-3,4.4l-33.5,19.3C203.7,263.6,201.7,264.1,199.7,264.1z
			 M197.1,259.6c1.5,0.9,4.5,0.7,6.3-0.3l33.5-19.3c0.8-0.5,1-0.9,1-1c0,0-0.1-0.2-0.5-0.4l-34.7-20c-1.5-0.9-4.5-0.7-6.3,0.3
			L163,238.2c-0.8,0.5-1,0.9-1,1c0,0,0.1,0.2,0.5,0.4L197.1,259.6L197.1,259.6z"/>
		<path fill="#396CAA" d="M239.9,226.6L239.9,226.6v-12l-26.8,0l-9.3-5.4c-2.1-1.2-5.8-1.1-8.3,0.3l-8.6,5l-26.8,0v12.3
			c-0.1,0.8,0.4,1.6,1.4,2.2l34.7,20c2.1,1.2,5.8,1.1,8.3-0.3l33.5-19.3C239.3,228.7,239.9,227.6,239.9,226.6z"/>
		<radialGradient id="SVGID_21_" cx="162.1919" cy="211.1573" r="43.8039" gradientUnits="userSpaceOnUse">
			<stop  offset="0" style="stop-color:#699DD1"/>
			<stop  offset="0.2662" style="stop-color:#6396CC"/>
			<stop  offset="0.6412" style="stop-color:#5184BD"/>
			<stop  offset="1" style="stop-color:#396CAA"/>
		</radialGradient>
		<path fill="url(#SVGID_21_)" d="M199.9,208.5c-1.6,0-3.2,0.4-4.4,1.2l-8.6,5l-26.8,0v12.3c-0.1,0.8,0.4,1.6,1.4,2.2l34.7,20
			c1,0.6,2.4,0.9,3.9,0.8V208.5z"/>
		<path fill="#D4ECFF" d="M163,214.6l-3,0v12.3c-0.1,0.8,0.4,1.6,1.4,2.2l1.6,0.9V214.6z"/>
		<path fill="#5793CE" d="M196.6,249.4c1.8,0.8,4.5,0.7,6.6-0.1v-14h-6.6V249.4z"/>
		<linearGradient id="SVGID_22_" gradientUnits="userSpaceOnUse" x1="170.4595" y1="197.113" x2="239.0741" y2="238.0201">
			<stop  offset="0" style="stop-color:#D4ECFF"/>
			<stop  offset="0.2009" style="stop-color:#D0EAFE"/>
			<stop  offset="0.3874" style="stop-color:#C5E2F9"/>
			<stop  offset="0.5682" style="stop-color:#B2D6F2"/>
			<stop  offset="0.7444" style="stop-color:#98C4E7"/>
			<stop  offset="0.8423" style="stop-color:#86B8E0"/>
		</linearGradient>
		<path fill="url(#SVGID_22_)" d="M196.1,236.9l-34.7-20c-2.1-1.2-1.9-3.4,0.6-4.8l33.5-19.3c2.5-1.4,6.2-1.6,8.3-0.3l34.7,20
			c2.1,1.2,1.9,3.4-0.6,4.8l-33.5,19.3C201.9,238,198.2,238.1,196.1,236.9z"/>
		<path fill="#FFFFFF" d="M237.8,214.9l-33.5,19.3c-2.5,1.4-6.2,1.6-8.3,0.3l-34.7-20c-0.5-0.3-0.8-0.6-1.1-0.9
			c-0.7,1.2-0.4,2.5,1.1,3.3l34.7,20c2.1,1.2,5.8,1.1,8.3-0.3l33.5-19.3c1.9-1.1,2.5-2.6,1.7-3.8
			C239.2,213.9,238.6,214.5,237.8,214.9z"/>
		<g>
			<path fill="#D4ECFF" d="M227.1,229.8c0,0.9-0.6,2-1.4,2.4c-0.8,0.4-1.4,0.1-1.4-0.8c0-0.9,0.6-2,1.4-2.4
				C226.5,228.5,227.1,228.9,227.1,229.8z"/>
			<path fill="#D4ECFF" d="M231.6,227.2c0,0.9-0.6,2-1.4,2.4c-0.8,0.4-1.4,0.1-1.4-0.8s0.6-2,1.4-2.4
				C231,225.9,231.6,226.3,231.6,227.2z"/>
			<path fill="#D4ECFF" d="M236.1,224.6c0,0.9-0.6,2-1.4,2.4c-0.8,0.4-1.4,0.1-1.4-0.8c0-0.9,0.6-2,1.4-2.4
				C235.5,223.3,236.1,223.7,236.1,224.6z"/>
		</g>
		<g>
			<path fill="#5793CE" d="M198.1,224.5l-16.2-9.4c-1-0.6-0.9-1.6,0.3-2.2l15.7-9c1.1-0.7,2.9-0.7,3.9-0.2l16.2,9.4
				c1,0.6,0.9,1.6-0.3,2.2l-15.7,9C200.9,225,199.1,225.1,198.1,224.5z"/>
			<path fill="#D4ECFF" d="M199.7,216.7l-2.2-1.3c-0.1-0.1-0.1-0.2,0-0.3l2.2-1.3c0.2-0.1,0.4-0.1,0.5,0l2.2,1.3
				c0.1,0.1,0.1,0.2,0,0.3l-2.2,1.3C200.1,216.7,199.8,216.7,199.7,216.7z"/>
			<path fill="#396CAA" d="M181.9,215.1L181.9,215.1c0.1,0,0.2-0.1,0.3-0.1l15.7-9c1.1-0.7,2.9-0.7,3.9-0.2l16.2,9.3
				c0.9-0.7,1-1.6,0-2.1l-16.2-9.4c-1-0.6-2.7-0.5-3.9,0.2l-15.7,9C181,213.6,180.9,214.6,181.9,215.1z"/>
		</g>
	</g>
</g>
</svg>
