<?xml version="1.0" encoding="utf-8"?>
<!-- Generator: Adobe Illustrator 18.1.1, SVG Export Plug-In . SVG Version: 6.00 Build 0)  -->
<svg version="1.1" id="Ñëîé_1" xmlns="http://www.w3.org/2000/svg" xmlns:xlink="http://www.w3.org/1999/xlink" x="0px" y="0px"
	 viewBox="0 0 600 450" enable-background="new 0 0 600 450" xml:space="preserve">
<g>
	<path fill="#173D7A" d="M304.9,324.2l75.6-43.1c2.8-1.6,2.4-4.4-0.8-6.2l-43.5-25.1c-3.2-1.8-8-2-10.8-0.4l-75.6,43.1
		c-2.8,1.6-2.4,4.4,0.8,6.2l43.5,25.1C297.3,325.6,302.2,325.8,304.9,324.2z"/>
	<path opacity="0.5" fill="#173D7A" d="M183.5,394.1l75.6-43.1c2.8-1.6,2.4-4.4-0.8-6.2l-43.5-25.1c-3.2-1.8-8-2-10.8-0.4
		l-75.6,43.1c-2.8,1.6-2.4,4.4,0.8,6.2l43.5,25.1C175.9,395.5,180.8,395.7,183.5,394.1z"/>
	<path opacity="0.5" fill="#173D7A" d="M399,378.2l75.6-43.1c2.8-1.6,2.4-4.4-0.8-6.2l-43.5-25.1c-3.2-1.8-8-2-10.8-0.4l-75.6,43.1
		c-2.8,1.6-2.4,4.4,0.8,6.2l43.5,25.1C391.4,379.6,396.2,379.8,399,378.2z"/>
	<path opacity="0.5" fill="#173D7A" d="M277.5,448.1l75.6-43.1c2.8-1.6,2.4-4.4-0.8-6.2l-43.5-25.1c-3.2-1.8-8-2-10.8-0.4
		l-75.6,43.1c-2.8,1.6-2.4,4.4,0.8,6.2l43.5,25.1C270,449.5,274.8,449.7,277.5,448.1z"/>
	<g>
		<g>
			<path opacity="0.5" fill="#173D7A" d="M59.3,308.5l-35.8-20.6c-2.2-1.3-1.9-3.5,0.6-4.9L58.7,263c2.5-1.5,6.4-1.6,8.6-0.4
				l35.8,20.6c2.2,1.3,1.9,3.5-0.6,4.9l-34.5,19.9C65.3,309.7,61.5,309.8,59.3,308.5z"/>
			<path fill="#396CAA" d="M104.5,269L104.5,269v-12.3l-27.7,0l-9.6-5.5c-2.2-1.3-6-1.1-8.6,0.4l-8.9,5.2l-27.7,0v12.7
				c-0.1,0.9,0.4,1.7,1.5,2.3l35.8,20.6c2.2,1.3,6,1.1,8.6-0.4l34.5-19.9C103.9,271.2,104.6,270.1,104.5,269z"/>
			<path fill="#396CAA" d="M63.3,250.3c-1.6,0-3.3,0.4-4.6,1.2l-8.9,5.2l-27.7,0v12.7c-0.1,0.9,0.4,1.7,1.5,2.3l35.8,20.6
				c1.1,0.6,2.5,0.9,4,0.8V250.3z"/>
			<path fill="#5793CE" d="M25.2,256.7l-3.1,0v12.7c-0.1,0.9,0.4,1.7,1.5,2.3l1.7,1V256.7z"/>
			<path fill="#5793CE" d="M59.9,292.6c1.9,0.8,4.6,0.8,6.8-0.1v-14.4h-6.8V292.6z"/>
			<path fill="#D4ECFF" d="M59.3,279.6L23.6,259c-2.2-1.3-1.9-3.5,0.6-4.9l34.5-19.9c2.5-1.5,6.4-1.6,8.6-0.4l35.8,20.6
				c2.2,1.3,1.9,3.5-0.6,4.9l-34.5,19.9C65.3,280.8,61.5,280.9,59.3,279.6z"/>
			<path fill="#FFFFFF" d="M102.4,256.9l-34.5,19.9c-2.5,1.5-6.4,1.6-8.6,0.4l-35.8-20.6c-0.5-0.3-0.8-0.6-1.1-1
				c-0.8,1.2-0.4,2.5,1.1,3.4l35.8,20.6c2.2,1.3,6,1.1,8.6-0.4l34.5-19.9c2-1.1,2.6-2.7,1.7-4C103.8,255.9,103.2,256.5,102.4,256.9z
				"/>
			<g>
				<path fill="#D4ECFF" d="M91.3,272.3c0,0.9-0.6,2-1.4,2.5c-0.8,0.5-1.4,0.1-1.4-0.8c0-0.9,0.6-2,1.4-2.5
					C90.7,271,91.3,271.4,91.3,272.3z"/>
				<path fill="#D4ECFF" d="M96,269.6c0,0.9-0.6,2-1.4,2.5c-0.8,0.5-1.4,0.1-1.4-0.8c0-0.9,0.6-2,1.4-2.5
					C95.3,268.3,96,268.7,96,269.6z"/>
				<path fill="#D4ECFF" d="M100.6,266.9c0,0.9-0.6,2-1.4,2.5c-0.8,0.5-1.4,0.1-1.4-0.8c0-0.9,0.6-2,1.4-2.5
					C100,265.6,100.6,266,100.6,266.9z"/>
			</g>
			<g>
				<path fill="#5793CE" d="M61.4,266.8l-16.7-9.7c-1-0.6-0.9-1.6,0.3-2.3l16.2-9.3c1.2-0.7,3-0.8,4-0.2l16.7,9.7
					c1,0.6,0.9,1.6-0.3,2.3l-16.2,9.3C64.3,267.4,62.5,267.4,61.4,266.8z"/>
				<path fill="#D4ECFF" d="M63,258.8l-2.3-1.3c-0.1-0.1-0.1-0.2,0-0.3l2.2-1.3c0.2-0.1,0.4-0.1,0.6,0l2.3,1.3
					c0.1,0.1,0.1,0.2,0,0.3l-2.2,1.3C63.4,258.8,63.2,258.8,63,258.8z"/>
				<path fill="#396CAA" d="M44.7,257.2L44.7,257.2c0.1,0,0.2-0.1,0.3-0.1l16.2-9.3c1.2-0.7,3-0.8,4-0.2l16.7,9.6
					c0.9-0.7,1-1.6,0-2.1l-16.7-9.7c-1-0.6-2.8-0.5-4,0.2L45,254.9C43.8,255.6,43.7,256.6,44.7,257.2z"/>
			</g>
		</g>
		<g>
			<path opacity="0.5" fill="#173D7A" d="M532.7,308.5L497,287.9c-2.2-1.3-1.9-3.5,0.6-4.9l34.5-19.9c2.5-1.5,6.4-1.6,8.6-0.4
				l35.8,20.6c2.2,1.3,1.9,3.5-0.6,4.9l-34.5,19.9C538.8,309.7,534.9,309.8,532.7,308.5z"/>
			<path fill="#396CAA" d="M577.9,269L577.9,269v-12.3l-27.7,0l-9.6-5.5c-2.2-1.3-6-1.1-8.6,0.4l-8.9,5.2l-27.7,0v12.7
				c-0.1,0.9,0.4,1.7,1.5,2.3l35.8,20.6c2.2,1.3,6,1.1,8.6-0.4l34.5-19.9C577.3,271.2,578,270.1,577.9,269z"/>
			<path fill="#396CAA" d="M536.7,250.3c-1.6,0-3.3,0.4-4.6,1.2l-8.9,5.2l-27.7,0v12.7c-0.1,0.9,0.4,1.7,1.5,2.3l35.8,20.6
				c1.1,0.6,2.5,0.9,4,0.8V250.3z"/>
			<path fill="#5793CE" d="M498.6,256.7l-3.1,0v12.7c-0.1,0.9,0.4,1.7,1.5,2.3l1.7,1V256.7z"/>
			<path fill="#5793CE" d="M533.3,292.6c1.9,0.8,4.6,0.8,6.8-0.1v-14.4h-6.8V292.6z"/>
			<path fill="#D4ECFF" d="M532.7,279.6L497,259c-2.2-1.3-1.9-3.5,0.6-4.9l34.5-19.9c2.5-1.5,6.4-1.6,8.6-0.4l35.8,20.6
				c2.2,1.3,1.9,3.5-0.6,4.9l-34.5,19.9C538.8,280.8,534.9,280.9,532.7,279.6z"/>
			<path fill="#FFFFFF" d="M575.8,256.9l-34.5,19.9c-2.5,1.5-6.4,1.6-8.6,0.4L497,256.6c-0.5-0.3-0.8-0.6-1.1-1
				c-0.8,1.2-0.4,2.5,1.1,3.4l35.8,20.6c2.2,1.3,6,1.1,8.6-0.4l34.5-19.9c2-1.1,2.6-2.7,1.7-4C577.2,255.9,576.6,256.5,575.8,256.9z
				"/>
			<g>
				<path fill="#D4ECFF" d="M564.8,272.3c0,0.9-0.6,2-1.4,2.5c-0.8,0.5-1.4,0.1-1.4-0.8c0-0.9,0.6-2,1.4-2.5
					C564.1,271,564.8,271.4,564.8,272.3z"/>
				<path fill="#D4ECFF" d="M569.4,269.6c0,0.9-0.6,2-1.4,2.5c-0.8,0.5-1.4,0.1-1.4-0.8c0-0.9,0.6-2,1.4-2.5
					C568.8,268.3,569.4,268.7,569.4,269.6z"/>
				<path fill="#D4ECFF" d="M574,266.9c0,0.9-0.6,2-1.4,2.5c-0.8,0.5-1.4,0.1-1.4-0.8c0-0.9,0.6-2,1.4-2.5
					C573.4,265.6,574,266,574,266.9z"/>
			</g>
			<g>
				<path fill="#5793CE" d="M534.8,266.8l-16.7-9.7c-1-0.6-0.9-1.6,0.3-2.3l16.2-9.3c1.2-0.7,3-0.8,4-0.2l16.7,9.7
					c1,0.6,0.9,1.6-0.3,2.3l-16.2,9.3C537.7,267.4,535.9,267.4,534.8,266.8z"/>
				<path fill="#D4ECFF" d="M536.4,258.8l-2.3-1.3c-0.1-0.1-0.1-0.2,0-0.3l2.2-1.3c0.2-0.1,0.4-0.1,0.6,0l2.3,1.3
					c0.1,0.1,0.1,0.2,0,0.3l-2.2,1.3C536.8,258.8,536.6,258.8,536.4,258.8z"/>
				<path fill="#396CAA" d="M518.1,257.2L518.1,257.2c0.1,0,0.2-0.1,0.3-0.1l16.2-9.3c1.2-0.7,3-0.8,4-0.2l16.7,9.6
					c0.9-0.7,1-1.6,0-2.1l-16.7-9.7c-1-0.6-2.8-0.5-4,0.2l-16.2,9.3C517.2,255.6,517.1,256.6,518.1,257.2z"/>
			</g>
		</g>
	</g>
	<g>
		<g>
			<g>
				<path fill="#396CAA" d="M248,271.3L248,271.3V106.7l65.4-17.1l12.1-7c2.8-1.6,7.6-1.4,10.8,0.4l11.2,6.5l34.9,0l-10.3,158.9
					c0.1,1.1-0.5,2.1-1.9,2.9l-65.3,49.3c-2.8,1.6-7.6,1.4-10.8-0.4L250.6,275C248.8,274,247.9,272.6,248,271.3z"/>
				<path fill="#D4ECFF" d="M330.5,81.5c2,0,4.1,0.6,5.8,1.5l11.2,6.5l34.9,0v165.1c0.1,1.1-0.5,2.1-1.9,2.9l-75.6,43.1
					c-1.3,0.8-3.1,1.1-5,1.1l-0.8-166.1L330.5,81.5z"/>
				<path fill="#5793CE" d="M304.2,301c-2.4,1-5.8,1-8.6-0.1V133.6h8.6V301z"/>
				<path fill="#D4ECFF" d="M304.9,135.6l75.6-43.1c2.8-1.6,2.4-4.4-0.8-6.2l-43.5-25.1c-3.2-1.8-8-2-10.8-0.4l-75.6,43.1
					c-2.8,1.6-2.4,4.4,0.8,6.2l43.5,25.1C297.3,137,302.2,137.2,304.9,135.6z"/>
				<path fill="#FAFDFF" d="M250.6,107l43.5,25.1c3.2,1.8,8,2,10.8,0.4l75.6-43.1c0.6-0.4,1.1-0.8,1.4-1.2c1,1.5,0.5,3.2-1.4,4.3
					l-75.6,43.1c-2.8,1.6-7.6,1.4-10.8-0.4L250.6,110c-2.5-1.4-3.2-3.4-2.2-5C248.9,105.7,249.6,106.4,250.6,107z"/>
				<g>
					<path fill="#173D7A" d="M302.8,118.1l50.4-29.2c1.3-0.7,1.1-2.1-0.4-2.9l-20.4-11.8c-1.5-0.9-3.8-1-5.1-0.2L277,103.2
						c-1.3,0.7-1.1,2.1,0.4,2.9l20.4,11.8C299.2,118.8,301.5,118.9,302.8,118.1z"/>
					<g>
						<path fill="#D4ECFF" d="M330,90.2l2.9-1.7c0.2-0.1,0.2-0.3-0.1-0.4l-2.8-1.6c-0.2-0.1-0.5-0.1-0.7,0l-2.9,1.7
							c-0.2,0.1-0.2,0.3,0.1,0.4l2.8,1.6C329.5,90.3,329.8,90.3,330,90.2z"/>
						<path fill="#D4ECFF" d="M320.2,95.8l2.9-1.7c0.2-0.1,0.2-0.3-0.1-0.4l-2.8-1.6c-0.2-0.1-0.5-0.1-0.7,0l-2.9,1.7
							c-0.2,0.1-0.2,0.3,0.1,0.4l2.8,1.6C319.7,95.9,320.1,96,320.2,95.8z"/>
						<path fill="#D4ECFF" d="M310.5,101.5l2.9-1.7c0.2-0.1,0.2-0.3-0.1-0.4l-2.8-1.6c-0.2-0.1-0.5-0.1-0.7,0l-2.9,1.7
							c-0.2,0.1-0.2,0.3,0.1,0.4l2.8,1.6C310,101.5,310.3,101.6,310.5,101.5z"/>
						<path fill="#D4ECFF" d="M300.7,107.1l2.9-1.7c0.2-0.1,0.2-0.3-0.1-0.4l-2.8-1.6c-0.2-0.1-0.5-0.1-0.7,0l-2.9,1.7
							c-0.2,0.1-0.2,0.3,0.1,0.4l2.8,1.6C300.2,107.1,300.6,107.2,300.7,107.1z"/>
					</g>
					<path fill="#5793CE" d="M353.2,88.9L353.2,88.9c-0.2,0-0.2-0.1-0.4-0.2L332.4,77c-1.5-0.9-3.8-1-5.1-0.2l-50.3,29.2
						c-1.2-0.9-1.3-2-0.1-2.7L327.4,74c1.3-0.7,3.6-0.7,5.1,0.2L352.8,86C354.3,86.9,354.5,88.2,353.2,88.9z"/>
				</g>
			</g>
			<g>
				<path fill="#173D7A" d="M285.6,168.2L257,151.8c-1.6-0.9-2.9-3.4-2.9-5.6V136c0-2.1,1.3-3.1,2.9-2.2l28.6,16.4
					c1.6,0.9,2.9,3.4,2.9,5.6V166C288.6,168.2,287.3,169.2,285.6,168.2z"/>
				<path fill="#FFFFFF" d="M255.6,133.5c-0.5,0.4-0.7,1.1-0.7,2.1v10.2c0,2.1,1.3,4.6,2.9,5.6l28.6,16.4c0.5,0.3,1,0.4,1.4,0.3
					c-0.5,0.5-1.3,0.6-2.2,0.1L257,151.8c-1.6-0.9-2.9-3.4-2.9-5.6V136C254.1,134.6,254.7,133.6,255.6,133.5z"/>
				<g>
					<path fill="#396CAA" d="M277,157.1l-2.6-1.5c-0.4-0.2-0.6-0.7-0.6-1.2v-2.8c0-0.5,0.3-0.7,0.6-0.5l2.6,1.5
						c0.4,0.2,0.6,0.7,0.6,1.2v2.8C277.7,157.1,277.4,157.3,277,157.1z"/>
					<path fill="#FFFFFF" d="M268.2,152l-2.6-1.5c-0.4-0.2-0.6-0.7-0.6-1.2v-2.8c0-0.5,0.3-0.7,0.6-0.5l2.6,1.5
						c0.4,0.2,0.6,0.7,0.6,1.2v2.8C268.9,152,268.6,152.2,268.2,152z"/>
				</g>
			</g>
			<g>
				<path fill="#173D7A" d="M285.6,242.2L257,225.8c-1.6-0.9-2.9-3.4-2.9-5.6V210c0-2.1,1.3-3.1,2.9-2.2l28.6,16.4
					c1.6,0.9,2.9,3.4,2.9,5.6V240C288.6,242.2,287.3,243.2,285.6,242.2z"/>
				<path fill="#FFFFFF" d="M255.6,207.5c-0.5,0.4-0.7,1.1-0.7,2.1v10.2c0,2.1,1.3,4.6,2.9,5.6l28.6,16.4c0.5,0.3,1,0.4,1.4,0.3
					c-0.5,0.5-1.3,0.6-2.2,0.1L257,225.8c-1.6-0.9-2.9-3.4-2.9-5.6V210C254.1,208.6,254.7,207.6,255.6,207.5z"/>
				<g>
					<path fill="#396CAA" d="M277,231.1l-2.6-1.5c-0.4-0.2-0.6-0.7-0.6-1.2v-2.8c0-0.5,0.3-0.7,0.6-0.5l2.6,1.5
						c0.4,0.2,0.6,0.7,0.6,1.2v2.8C277.7,231.1,277.4,231.3,277,231.1z"/>
					<path fill="#FFFFFF" d="M268.2,226l-2.6-1.5c-0.4-0.2-0.6-0.7-0.6-1.2v-2.8c0-0.5,0.3-0.7,0.6-0.5l2.6,1.5
						c0.4,0.2,0.6,0.7,0.6,1.2v2.8C268.9,226,268.6,226.2,268.2,226z"/>
				</g>
			</g>
			<g>
				<path fill="#173D7A" d="M285.6,279.2L257,262.8c-1.6-0.9-2.9-3.4-2.9-5.6V247c0-2.1,1.3-3.1,2.9-2.2l28.6,16.4
					c1.6,0.9,2.9,3.4,2.9,5.6V277C288.6,279.2,287.3,280.2,285.6,279.2z"/>
				<path fill="#FFFFFF" d="M255.6,244.5c-0.5,0.4-0.7,1.1-0.7,2.1v10.2c0,2.1,1.3,4.6,2.9,5.6l28.6,16.4c0.5,0.3,1,0.4,1.4,0.3
					c-0.5,0.5-1.3,0.6-2.2,0.1L257,262.8c-1.6-0.9-2.9-3.4-2.9-5.6V247C254.1,245.6,254.7,244.6,255.6,244.5z"/>
				<g>
					<path fill="#396CAA" d="M277,268.1l-2.6-1.5c-0.4-0.2-0.6-0.7-0.6-1.2v-2.8c0-0.5,0.3-0.7,0.6-0.5l2.6,1.5
						c0.4,0.2,0.6,0.7,0.6,1.2v2.8C277.7,268.1,277.4,268.3,277,268.1z"/>
					<path fill="#FFFFFF" d="M268.2,263l-2.6-1.5c-0.4-0.2-0.6-0.7-0.6-1.2v-2.8c0-0.5,0.3-0.7,0.6-0.5l2.6,1.5
						c0.4,0.2,0.6,0.7,0.6,1.2v2.8C268.9,263,268.6,263.2,268.2,263z"/>
				</g>
			</g>
			<g>
				<path fill="#173D7A" d="M285.6,205.2L257,188.8c-1.6-0.9-2.9-3.4-2.9-5.6V173c0-2.1,1.3-3.1,2.9-2.2l28.6,16.4
					c1.6,0.9,2.9,3.4,2.9,5.6V203C288.6,205.2,287.3,206.2,285.6,205.2z"/>
				<path fill="#FFFFFF" d="M255.6,170.5c-0.5,0.4-0.7,1.1-0.7,2.1v10.2c0,2.1,1.3,4.6,2.9,5.6l28.6,16.4c0.5,0.3,1,0.4,1.4,0.3
					c-0.5,0.5-1.3,0.6-2.2,0.1L257,188.8c-1.6-0.9-2.9-3.4-2.9-5.6V173C254.1,171.6,254.7,170.6,255.6,170.5z"/>
				<g>
					<path fill="#396CAA" d="M277,194.1l-2.6-1.5c-0.4-0.2-0.6-0.7-0.6-1.2v-2.8c0-0.5,0.3-0.7,0.6-0.5l2.6,1.5
						c0.4,0.2,0.6,0.7,0.6,1.2v2.8C277.7,194.1,277.4,194.3,277,194.1z"/>
					<path fill="#FFFFFF" d="M268.2,189l-2.6-1.5c-0.4-0.2-0.6-0.7-0.6-1.2v-2.8c0-0.5,0.3-0.7,0.6-0.5l2.6,1.5
						c0.4,0.2,0.6,0.7,0.6,1.2v2.8C268.9,189,268.6,189.2,268.2,189z"/>
				</g>
			</g>
		</g>
		<g>
			<path fill="#5793CE" d="M310.4,157.7l66.1-38.1c1.5-0.9,2.7-3.1,2.7-5.1v-12.6c0-2-1.2-2.9-2.7-2L310.4,138
				c-1.5,0.9-2.7,3.1-2.7,5.1v12.6C307.8,157.7,309,158.6,310.4,157.7z"/>
			<path opacity="0.4" fill="#D4ECFF" d="M312.3,153.3l62.3-36c0.8-0.4,1.4-1.6,1.4-2.6v-9.5c0-1-0.6-1.5-1.4-1l-62.3,36
				c-0.8,0.4-1.4,1.6-1.4,2.6v9.5C311,153.3,311.6,153.8,312.3,153.3z"/>
			<path fill="#D4ECFF" d="M361.6,120.1l9.3-5.4c0.7-0.4,1.3-1.5,1.3-2.5l0,0c0-1-0.6-1.4-1.3-1l-9.3,5.4c-0.7,0.4-1.3,1.5-1.3,2.5
				l0,0C360.3,120,360.9,120.5,361.6,120.1z"/>
			<path fill="#173D7A" d="M353.7,122.9c0,1,0.7,1.4,1.5,0.9c0.8-0.5,1.5-1.7,1.5-2.6c0-1-0.7-1.4-1.5-0.9S353.7,121.9,353.7,122.9z
				"/>
			<path fill="#173D7A" d="M348.3,126c0,1,0.7,1.4,1.5,0.9c0.8-0.5,1.5-1.7,1.5-2.6c0-1-0.7-1.4-1.5-0.9
				C349,123.8,348.3,125,348.3,126z"/>
			<path fill="#D4ECFF" d="M343,129.1c0,1,0.7,1.4,1.5,0.9c0.8-0.5,1.5-1.7,1.5-2.6c0-1-0.7-1.4-1.5-0.9
				C343.7,126.9,343,128.1,343,129.1z"/>
			<path fill="#173D7A" d="M337.6,132.2c0,1,0.7,1.4,1.5,0.9c0.8-0.5,1.5-1.7,1.5-2.6c0-1-0.7-1.4-1.5-0.9
				C338.3,130,337.6,131.2,337.6,132.2z"/>
			<path fill="#173D7A" d="M315,148l3.1-1.8c0.5-0.3,0.8-1,0.8-1.6v-3.3c0-0.6-0.4-0.9-0.8-0.6l-3.1,1.8c-0.5,0.3-0.8,1-0.8,1.6v3.3
				C314.1,148,314.5,148.3,315,148z"/>
		</g>
		<g>
			<path fill="#5793CE" d="M310.4,180l66.1-38.1c1.5-0.9,2.7-3.1,2.7-5.1v-12.6c0-2-1.2-2.9-2.7-2l-66.1,38.1
				c-1.5,0.9-2.7,3.1-2.7,5.1v12.6C307.8,179.9,309,180.8,310.4,180z"/>
			<path opacity="0.4" fill="#D4ECFF" d="M312.3,175.5l62.3-36c0.8-0.4,1.4-1.6,1.4-2.6v-9.5c0-1-0.6-1.5-1.4-1l-62.3,36
				c-0.8,0.4-1.4,1.6-1.4,2.6v9.5C311,175.5,311.6,176,312.3,175.5z"/>
			<path fill="#D4ECFF" d="M361.6,142.3l9.3-5.4c0.7-0.4,1.3-1.5,1.3-2.5l0,0c0-1-0.6-1.4-1.3-1l-9.3,5.4c-0.7,0.4-1.3,1.5-1.3,2.5
				l0,0C360.3,142.3,360.9,142.7,361.6,142.3z"/>
			<path fill="#FFFFFF" d="M353.7,145.1c0,1,0.7,1.4,1.5,0.9c0.8-0.5,1.5-1.7,1.5-2.6c0-1-0.7-1.4-1.5-0.9
				C354.4,143,353.7,144.1,353.7,145.1z"/>
			<path fill="#173D7A" d="M348.3,148.2c0,1,0.7,1.4,1.5,0.9c0.8-0.5,1.5-1.7,1.5-2.6c0-1-0.7-1.4-1.5-0.9
				C349,146.1,348.3,147.2,348.3,148.2z"/>
			<path fill="#D4ECFF" d="M343,151.3c0,1,0.7,1.4,1.5,0.9c0.8-0.5,1.5-1.7,1.5-2.6c0-1-0.7-1.4-1.5-0.9
				C343.7,149.2,343,150.3,343,151.3z"/>
			<path fill="#173D7A" d="M337.6,154.4c0,1,0.7,1.4,1.5,0.9c0.8-0.5,1.5-1.7,1.5-2.6c0-1-0.7-1.4-1.5-0.9
				C338.3,152.3,337.6,153.4,337.6,154.4z"/>
			<path fill="#173D7A" d="M315,170.3l3.1-1.8c0.5-0.3,0.8-1,0.8-1.6v-3.3c0-0.6-0.4-0.9-0.8-0.6l-3.1,1.8c-0.5,0.3-0.8,1-0.8,1.6
				v3.3C314.1,170.2,314.5,170.5,315,170.3z"/>
		</g>
		<g>
			<path fill="#5793CE" d="M310.4,202.2l66.1-38.1c1.5-0.9,2.7-3.1,2.7-5.1v-12.6c0-2-1.2-2.9-2.7-2l-66.1,38.1
				c-1.5,0.9-2.7,3.1-2.7,5.1v12.6C307.8,202.1,309,203,310.4,202.2z"/>
			<path opacity="0.4" fill="#D4ECFF" d="M312.3,197.8l62.3-36c0.8-0.4,1.4-1.6,1.4-2.6v-9.5c0-1-0.6-1.5-1.4-1l-62.3,36
				c-0.8,0.4-1.4,1.6-1.4,2.6v9.5C311,197.7,311.6,198.2,312.3,197.8z"/>
			<path fill="#D4ECFF" d="M361.6,164.5l9.3-5.4c0.7-0.4,1.3-1.5,1.3-2.5l0,0c0-1-0.6-1.4-1.3-1l-9.3,5.4c-0.7,0.4-1.3,1.5-1.3,2.5
				l0,0C360.3,164.5,360.9,164.9,361.6,164.5z"/>
			<path fill="#FFFFFF" d="M353.7,167.3c0,1,0.7,1.4,1.5,0.9c0.8-0.5,1.5-1.7,1.5-2.6c0-1-0.7-1.4-1.5-0.9
				C354.4,165.2,353.7,166.3,353.7,167.3z"/>
			<path fill="#173D7A" d="M348.3,170.4c0,1,0.7,1.4,1.5,0.9c0.8-0.5,1.5-1.7,1.5-2.6c0-1-0.7-1.4-1.5-0.9
				C349,168.3,348.3,169.4,348.3,170.4z"/>
			<path fill="#D4ECFF" d="M343,173.5c0,1,0.7,1.4,1.5,0.9c0.8-0.5,1.5-1.7,1.5-2.6c0-1-0.7-1.4-1.5-0.9
				C343.7,171.4,343,172.6,343,173.5z"/>
			<path fill="#173D7A" d="M337.6,176.6c0,1,0.7,1.4,1.5,0.9c0.8-0.5,1.5-1.7,1.5-2.6c0-1-0.7-1.4-1.5-0.9
				C338.3,174.5,337.6,175.7,337.6,176.6z"/>
			<path fill="#173D7A" d="M315,192.5l3.1-1.8c0.5-0.3,0.8-1,0.8-1.6v-3.3c0-0.6-0.4-0.9-0.8-0.6l-3.1,1.8c-0.5,0.3-0.8,1-0.8,1.6
				v3.3C314.1,192.5,314.5,192.7,315,192.5z"/>
		</g>
		<g>
			<path fill="#5793CE" d="M310.4,224.4l66.1-38.1c1.5-0.9,2.7-3.1,2.7-5.1v-12.6c0-2-1.2-2.9-2.7-2l-66.1,38.1
				c-1.5,0.9-2.7,3.1-2.7,5.1v12.6C307.8,224.3,309,225.2,310.4,224.4z"/>
			<path opacity="0.4" fill="#D4ECFF" d="M312.3,220l62.3-36c0.8-0.4,1.4-1.6,1.4-2.6v-9.5c0-1-0.6-1.5-1.4-1l-62.3,36
				c-0.8,0.4-1.4,1.6-1.4,2.6v9.5C311,219.9,311.6,220.4,312.3,220z"/>
			<path fill="#D4ECFF" d="M361.6,186.7l9.3-5.4c0.7-0.4,1.3-1.5,1.3-2.5l0,0c0-1-0.6-1.4-1.3-1l-9.3,5.4c-0.7,0.4-1.3,1.5-1.3,2.5
				l0,0C360.3,186.7,360.9,187.1,361.6,186.7z"/>
			<path fill="#173D7A" d="M353.7,189.5c0,1,0.7,1.4,1.5,0.9c0.8-0.5,1.5-1.7,1.5-2.6c0-1-0.7-1.4-1.5-0.9
				C354.4,187.4,353.7,188.6,353.7,189.5z"/>
			<path fill="#173D7A" d="M348.3,192.6c0,1,0.7,1.4,1.5,0.9c0.8-0.5,1.5-1.7,1.5-2.6c0-1-0.7-1.4-1.5-0.9
				C349,190.5,348.3,191.7,348.3,192.6z"/>
			<path fill="#D4ECFF" d="M343,195.7c0,1,0.7,1.4,1.5,0.9c0.8-0.5,1.5-1.7,1.5-2.6c0-1-0.7-1.4-1.5-0.9
				C343.7,193.6,343,194.8,343,195.7z"/>
			<path fill="#173D7A" d="M337.6,198.8c0,1,0.7,1.4,1.5,0.9c0.8-0.5,1.5-1.7,1.5-2.6c0-1-0.7-1.4-1.5-0.9
				C338.3,196.7,337.6,197.9,337.6,198.8z"/>
			<path fill="#D4ECFF" d="M315,214.7l3.1-1.8c0.5-0.3,0.8-1,0.8-1.6V208c0-0.6-0.4-0.9-0.8-0.6l-3.1,1.8c-0.5,0.3-0.8,1-0.8,1.6
				v3.3C314.1,214.7,314.5,215,315,214.7z"/>
		</g>
		<g>
			<path fill="#5793CE" d="M310.4,246.6l66.1-38.1c1.5-0.9,2.7-3.1,2.7-5.1v-12.6c0-2-1.2-2.9-2.7-2l-66.1,38.1
				c-1.5,0.9-2.7,3.1-2.7,5.1v12.6C307.8,246.5,309,247.5,310.4,246.6z"/>
			<path opacity="0.4" fill="#D4ECFF" d="M312.3,242.2l62.3-36c0.8-0.4,1.4-1.6,1.4-2.6v-9.5c0-1-0.6-1.5-1.4-1l-62.3,36
				c-0.8,0.4-1.4,1.6-1.4,2.6v9.5C311,242.2,311.6,242.6,312.3,242.2z"/>
			<path fill="#D4ECFF" d="M361.6,208.9l9.3-5.4c0.7-0.4,1.3-1.5,1.3-2.5l0,0c0-1-0.6-1.4-1.3-1l-9.3,5.4c-0.7,0.4-1.3,1.5-1.3,2.5
				l0,0C360.3,208.9,360.9,209.4,361.6,208.9z"/>
			<path fill="#173D7A" d="M353.7,211.7c0,1,0.7,1.4,1.5,0.9c0.8-0.5,1.5-1.7,1.5-2.6c0-1-0.7-1.4-1.5-0.9
				C354.4,209.6,353.7,210.8,353.7,211.7z"/>
			<path fill="#FFFFFF" d="M348.3,214.8c0,1,0.7,1.4,1.5,0.9c0.8-0.5,1.5-1.7,1.5-2.6c0-1-0.7-1.4-1.5-0.9
				C349,212.7,348.3,213.9,348.3,214.8z"/>
			<path fill="#D4ECFF" d="M343,218c0,1,0.7,1.4,1.5,0.9c0.8-0.5,1.5-1.7,1.5-2.6c0-1-0.7-1.4-1.5-0.9C343.7,215.8,343,217,343,218z
				"/>
			<path fill="#FFFFFF" d="M337.6,221.1c0,1,0.7,1.4,1.5,0.9s1.5-1.7,1.5-2.6c0-1-0.7-1.4-1.5-0.9
				C338.3,218.9,337.6,220.1,337.6,221.1z"/>
			<path fill="#D4ECFF" d="M315,236.9l3.1-1.8c0.5-0.3,0.8-1,0.8-1.6v-3.3c0-0.6-0.4-0.9-0.8-0.6l-3.1,1.8c-0.5,0.3-0.8,1-0.8,1.6
				v3.3C314.1,236.9,314.5,237.2,315,236.9z"/>
		</g>
		<g>
			<path fill="#5793CE" d="M310.4,268.8l66.1-38.1c1.5-0.9,2.7-3.1,2.7-5.1V213c0-2-1.2-2.9-2.7-2l-66.1,38.1
				c-1.5,0.9-2.7,3.1-2.7,5.1v12.6C307.8,268.8,309,269.7,310.4,268.8z"/>
			<path opacity="0.4" fill="#D4ECFF" d="M312.3,264.4l62.3-36c0.8-0.4,1.4-1.6,1.4-2.6v-9.5c0-1-0.6-1.5-1.4-1l-62.3,36
				c-0.8,0.4-1.4,1.6-1.4,2.6v9.5C311,264.4,311.6,264.8,312.3,264.4z"/>
			<path fill="#D4ECFF" d="M361.6,231.1l9.3-5.4c0.7-0.4,1.3-1.5,1.3-2.5l0,0c0-1-0.6-1.4-1.3-1l-9.3,5.4c-0.7,0.4-1.3,1.5-1.3,2.5
				v0C360.3,231.1,360.9,231.6,361.6,231.1z"/>
			<path fill="#173D7A" d="M353.7,234c0,1,0.7,1.4,1.5,0.9c0.8-0.5,1.5-1.7,1.5-2.6c0-1-0.7-1.4-1.5-0.9S353.7,233,353.7,234z"/>
			<path fill="#173D7A" d="M348.3,237.1c0,1,0.7,1.4,1.5,0.9c0.8-0.5,1.5-1.7,1.5-2.6c0-1-0.7-1.4-1.5-0.9
				C349,234.9,348.3,236.1,348.3,237.1z"/>
			<path fill="#D4ECFF" d="M343,240.2c0,1,0.7,1.4,1.5,0.9c0.8-0.5,1.5-1.7,1.5-2.6c0-1-0.7-1.4-1.5-0.9
				C343.7,238,343,239.2,343,240.2z"/>
			<path fill="#173D7A" d="M337.6,243.3c0,1,0.7,1.4,1.5,0.9c0.8-0.5,1.5-1.7,1.5-2.6c0-1-0.7-1.4-1.5-0.9
				C338.3,241.1,337.6,242.3,337.6,243.3z"/>
			<path fill="#173D7A" d="M315,259.1l3.1-1.8c0.5-0.3,0.8-1,0.8-1.6v-3.3c0-0.6-0.4-0.9-0.8-0.6l-3.1,1.8c-0.5,0.3-0.8,1-0.8,1.6
				v3.3C314.1,259.1,314.5,259.4,315,259.1z"/>
		</g>
		<g>
			<path fill="#5793CE" d="M310.4,291l66.1-38.1c1.5-0.9,2.7-3.1,2.7-5.1v-12.6c0-2-1.2-2.9-2.7-2l-66.1,38.1
				c-1.5,0.9-2.7,3.1-2.7,5.1V289C307.8,291,309,291.9,310.4,291z"/>
			<path opacity="0.4" fill="#D4ECFF" d="M312.3,286.6l62.3-36c0.8-0.4,1.4-1.6,1.4-2.6v-9.5c0-1-0.6-1.5-1.4-1l-62.3,36
				c-0.8,0.4-1.4,1.6-1.4,2.6v9.5C311,286.6,311.6,287,312.3,286.6z"/>
			<path fill="#D4ECFF" d="M361.6,253.4l9.3-5.4c0.7-0.4,1.3-1.5,1.3-2.5l0,0c0-1-0.6-1.4-1.3-1l-9.3,5.4c-0.7,0.4-1.3,1.5-1.3,2.5
				l0,0C360.3,253.3,360.9,253.8,361.6,253.4z"/>
			<path fill="#FFFFFF" d="M352,257.4c0,1.8,1.3,2.6,2.9,1.7c1.6-0.9,2.9-3.1,2.9-5c0-1.8-1.3-2.6-2.9-1.7
				C353.3,253.3,352,255.5,352,257.4z"/>
			<path fill="#173D7A" d="M340.9,263.9c0,1,0.7,1.4,1.5,0.9c0.8-0.5,1.5-1.7,1.5-2.6c0-1-0.7-1.4-1.5-0.9
				C341.6,261.7,340.9,262.9,340.9,263.9z"/>
			<path fill="#D4ECFF" d="M335.5,267c0,1,0.7,1.4,1.5,0.9s1.5-1.7,1.5-2.6c0-1-0.7-1.4-1.5-0.9C336.2,264.8,335.5,266,335.5,267z"
				/>
			<path fill="#173D7A" d="M330.1,270.1c0,1,0.7,1.4,1.5,0.9c0.8-0.5,1.5-1.7,1.5-2.6c0-1-0.7-1.4-1.5-0.9
				C330.8,267.9,330.1,269.1,330.1,270.1z"/>
			<path fill="#D4ECFF" d="M315,281.3l3.1-1.8c0.5-0.3,0.8-1,0.8-1.6v-3.3c0-0.6-0.4-0.9-0.8-0.6l-3.1,1.8c-0.5,0.3-0.8,1-0.8,1.6
				v3.3C314.1,281.3,314.5,281.6,315,281.3z"/>
		</g>
	</g>
	<g>
		<g>
			<g>
				<path fill="#396CAA" d="M126.6,341.2L126.6,341.2V176.6l65.4-17.1l12.1-7c2.8-1.6,7.6-1.4,10.8,0.4l11.2,6.5l34.9,0l-10.3,158.9
					c0.1,1.1-0.5,2.1-1.9,2.9l-65.3,49.3c-2.8,1.6-7.6,1.4-10.8-0.4l-43.5-25.1C127.4,343.9,126.5,342.5,126.6,341.2z"/>
				<path fill="#D4ECFF" d="M209.1,151.4c2,0,4.1,0.6,5.8,1.5l11.2,6.5l34.9,0v165.1c0.1,1.1-0.5,2.1-1.9,2.9l-75.6,43.1
					c-1.3,0.8-3.1,1.1-5,1.1l-0.8-166.1L209.1,151.4z"/>
				<path fill="#5793CE" d="M182.8,370.8c-2.4,1-5.8,1-8.6-0.1V203.5h8.6V370.8z"/>
				<path fill="#D4ECFF" d="M183.5,205.5l75.6-43.1c2.8-1.6,2.4-4.4-0.8-6.2L214.9,131c-3.2-1.8-8-2-10.8-0.4l-75.6,43.1
					c-2.8,1.6-2.4,4.4,0.8,6.2l43.5,25.1C175.9,206.9,180.8,207.1,183.5,205.5z"/>
				<path fill="#FAFDFF" d="M129.2,176.9l43.5,25.1c3.2,1.8,8,2,10.8,0.4l75.6-43.1c0.6-0.4,1.1-0.8,1.4-1.2c1,1.5,0.5,3.2-1.4,4.3
					l-75.6,43.1c-2.8,1.6-7.6,1.4-10.8-0.4l-43.5-25.1c-2.5-1.4-3.2-3.4-2.2-5C127.5,175.6,128.2,176.3,129.2,176.9z"/>
				<g>
					<path fill="#173D7A" d="M181.4,188l50.4-29.2c1.3-0.7,1.1-2.1-0.4-2.9L211,144.1c-1.5-0.9-3.8-1-5.1-0.2l-50.4,29.2
						c-1.3,0.7-1.1,2.1,0.4,2.9l20.4,11.8C177.8,188.7,180.1,188.8,181.4,188z"/>
					<g>
						<path fill="#D4ECFF" d="M208.6,160.1l2.9-1.7c0.2-0.1,0.2-0.3-0.1-0.4l-2.8-1.6c-0.2-0.1-0.5-0.1-0.7,0l-2.9,1.7
							c-0.2,0.1-0.2,0.3,0.1,0.4l2.8,1.6C208.1,160.2,208.4,160.2,208.6,160.1z"/>
						<path fill="#D4ECFF" d="M198.8,165.7l2.9-1.7c0.2-0.1,0.2-0.3-0.1-0.4l-2.8-1.6c-0.2-0.1-0.5-0.1-0.7,0l-2.9,1.7
							c-0.2,0.1-0.2,0.3,0.1,0.4l2.8,1.6C198.3,165.8,198.6,165.8,198.8,165.7z"/>
						<path fill="#D4ECFF" d="M189.1,171.3l2.9-1.7c0.2-0.1,0.2-0.3-0.1-0.4l-2.8-1.6c-0.2-0.1-0.5-0.1-0.7,0l-2.9,1.7
							c-0.2,0.1-0.2,0.3,0.1,0.4l2.8,1.6C188.6,171.4,188.9,171.4,189.1,171.3z"/>
						<path fill="#D4ECFF" d="M179.3,177l2.9-1.7c0.2-0.1,0.2-0.3-0.1-0.4l-2.8-1.6c-0.2-0.1-0.5-0.1-0.7,0l-2.9,1.7
							c-0.2,0.1-0.2,0.3,0.1,0.4l2.8,1.6C178.8,177,179.1,177.1,179.3,177z"/>
					</g>
					<path fill="#5793CE" d="M231.8,158.8L231.8,158.8c-0.2,0-0.2-0.1-0.4-0.2L211,146.9c-1.5-0.9-3.8-1-5.1-0.2l-50.3,29.2
						c-1.2-0.9-1.3-2-0.1-2.7l50.4-29.2c1.3-0.7,3.6-0.7,5.1,0.2l20.4,11.8C232.9,156.8,233,158.1,231.8,158.8z"/>
				</g>
			</g>
			<g>
				<path fill="#173D7A" d="M164.2,238.1l-28.6-16.4c-1.6-0.9-2.9-3.4-2.9-5.6v-10.2c0-2.1,1.3-3.1,2.9-2.2l28.6,16.4
					c1.6,0.9,2.9,3.4,2.9,5.6v10.2C167.2,238.1,165.8,239,164.2,238.1z"/>
				<path fill="#FFFFFF" d="M134.2,203.4c-0.5,0.4-0.7,1.1-0.7,2.1v10.2c0,2.1,1.3,4.6,2.9,5.6l28.6,16.4c0.5,0.3,1,0.4,1.4,0.3
					c-0.5,0.5-1.3,0.6-2.2,0.1l-28.6-16.4c-1.6-0.9-2.9-3.4-2.9-5.6v-10.2C132.7,204.4,133.3,203.5,134.2,203.4z"/>
				<g>
					<path fill="#396CAA" d="M155.6,227l-2.6-1.5c-0.4-0.2-0.6-0.7-0.6-1.2v-2.8c0-0.5,0.3-0.7,0.6-0.5l2.6,1.5
						c0.4,0.2,0.6,0.7,0.6,1.2v2.8C156.3,227,156,227.2,155.6,227z"/>
					<path fill="#FFFFFF" d="M146.8,221.9l-2.6-1.5c-0.4-0.2-0.6-0.7-0.6-1.2v-2.8c0-0.5,0.3-0.7,0.6-0.5l2.6,1.5
						c0.4,0.2,0.6,0.7,0.6,1.2v2.8C147.5,221.9,147.2,222.1,146.8,221.9z"/>
				</g>
			</g>
			<g>
				<path fill="#173D7A" d="M164.2,312.1l-28.6-16.4c-1.6-0.9-2.9-3.4-2.9-5.6v-10.2c0-2.1,1.3-3.1,2.9-2.2l28.6,16.4
					c1.6,0.9,2.9,3.4,2.9,5.6v10.2C167.2,312.1,165.8,313,164.2,312.1z"/>
				<path fill="#FFFFFF" d="M134.2,277.4c-0.5,0.4-0.7,1.1-0.7,2.1v10.2c0,2.1,1.3,4.6,2.9,5.6l28.6,16.4c0.5,0.3,1,0.4,1.4,0.3
					c-0.5,0.5-1.3,0.6-2.2,0.1l-28.6-16.4c-1.6-0.9-2.9-3.4-2.9-5.6v-10.2C132.7,278.4,133.3,277.5,134.2,277.4z"/>
				<g>
					<path fill="#396CAA" d="M155.6,301l-2.6-1.5c-0.4-0.2-0.6-0.7-0.6-1.2v-2.8c0-0.5,0.3-0.7,0.6-0.5l2.6,1.5
						c0.4,0.2,0.6,0.7,0.6,1.2v2.8C156.3,301,156,301.2,155.6,301z"/>
					<path fill="#FFFFFF" d="M146.8,295.9l-2.6-1.5c-0.4-0.2-0.6-0.7-0.6-1.2v-2.8c0-0.5,0.3-0.7,0.6-0.5l2.6,1.5
						c0.4,0.2,0.6,0.7,0.6,1.2v2.8C147.5,295.9,147.2,296.1,146.8,295.9z"/>
				</g>
			</g>
			<g>
				<path fill="#173D7A" d="M164.2,349.1l-28.6-16.4c-1.6-0.9-2.9-3.4-2.9-5.6v-10.2c0-2.1,1.3-3.1,2.9-2.2l28.6,16.4
					c1.6,0.9,2.9,3.4,2.9,5.6v10.2C167.2,349.1,165.8,350,164.2,349.1z"/>
				<path fill="#FFFFFF" d="M134.2,314.4c-0.5,0.4-0.7,1.1-0.7,2.1v10.2c0,2.1,1.3,4.6,2.9,5.6l28.6,16.4c0.5,0.3,1,0.4,1.4,0.3
					c-0.5,0.5-1.3,0.6-2.2,0.1l-28.6-16.4c-1.6-0.9-2.9-3.4-2.9-5.6v-10.2C132.7,315.4,133.3,314.5,134.2,314.4z"/>
				<g>
					<path fill="#396CAA" d="M155.6,338l-2.6-1.5c-0.4-0.2-0.6-0.7-0.6-1.2v-2.8c0-0.5,0.3-0.7,0.6-0.5l2.6,1.5
						c0.4,0.2,0.6,0.7,0.6,1.2v2.8C156.3,338,156,338.2,155.6,338z"/>
					<path fill="#FFFFFF" d="M146.8,332.9l-2.6-1.5c-0.4-0.2-0.6-0.7-0.6-1.2v-2.8c0-0.5,0.3-0.7,0.6-0.5l2.6,1.5
						c0.4,0.2,0.6,0.7,0.6,1.2v2.8C147.5,332.9,147.2,333.1,146.8,332.9z"/>
				</g>
			</g>
			<g>
				<path fill="#173D7A" d="M164.2,275.1l-28.6-16.4c-1.6-0.9-2.9-3.4-2.9-5.6v-10.2c0-2.1,1.3-3.1,2.9-2.2l28.6,16.4
					c1.6,0.9,2.9,3.4,2.9,5.6v10.2C167.2,275.1,165.8,276,164.2,275.1z"/>
				<path fill="#FFFFFF" d="M134.2,240.4c-0.5,0.4-0.7,1.1-0.7,2.1v10.2c0,2.1,1.3,4.6,2.9,5.6l28.6,16.4c0.5,0.3,1,0.4,1.4,0.3
					c-0.5,0.5-1.3,0.6-2.2,0.1l-28.6-16.4c-1.6-0.9-2.9-3.4-2.9-5.6v-10.2C132.7,241.4,133.3,240.5,134.2,240.4z"/>
				<g>
					<path fill="#396CAA" d="M155.6,264l-2.6-1.5c-0.4-0.2-0.6-0.7-0.6-1.2v-2.8c0-0.5,0.3-0.7,0.6-0.5l2.6,1.5
						c0.4,0.2,0.6,0.7,0.6,1.2v2.8C156.3,264,156,264.2,155.6,264z"/>
					<path fill="#FFFFFF" d="M146.8,258.9l-2.6-1.5c-0.4-0.2-0.6-0.7-0.6-1.2v-2.8c0-0.5,0.3-0.7,0.6-0.5l2.6,1.5
						c0.4,0.2,0.6,0.7,0.6,1.2v2.8C147.5,258.9,147.2,259.1,146.8,258.9z"/>
				</g>
			</g>
		</g>
		<g>
			<path fill="#5793CE" d="M189,227.6l66.1-38.1c1.5-0.9,2.7-3.1,2.7-5.1v-12.6c0-2-1.2-2.9-2.7-2L189,207.9
				c-1.5,0.9-2.7,3.1-2.7,5.1v12.6C186.4,227.6,187.6,228.5,189,227.6z"/>
			<path opacity="0.4" fill="#D4ECFF" d="M190.9,223.2l62.3-36c0.8-0.4,1.4-1.6,1.4-2.6v-9.5c0-1-0.6-1.5-1.4-1l-62.3,36
				c-0.8,0.4-1.4,1.6-1.4,2.6v9.5C189.6,223.2,190.2,223.6,190.9,223.2z"/>
			<path fill="#D4ECFF" d="M240.2,190l9.3-5.4c0.7-0.4,1.3-1.5,1.3-2.5l0,0c0-1-0.6-1.4-1.3-1l-9.3,5.4c-0.7,0.4-1.3,1.5-1.3,2.5
				l0,0C238.9,189.9,239.5,190.4,240.2,190z"/>
			<path fill="#173D7A" d="M232.3,192.8c0,1,0.7,1.4,1.5,0.9c0.8-0.5,1.5-1.7,1.5-2.6c0-1-0.7-1.4-1.5-0.9
				C233,190.6,232.3,191.8,232.3,192.8z"/>
			<path fill="#173D7A" d="M226.9,195.9c0,1,0.7,1.4,1.5,0.9c0.8-0.5,1.5-1.7,1.5-2.6c0-1-0.7-1.4-1.5-0.9
				C227.6,193.7,226.9,194.9,226.9,195.9z"/>
			<path fill="#D4ECFF" d="M221.6,199c0,1,0.7,1.4,1.5,0.9c0.8-0.5,1.5-1.7,1.5-2.6c0-1-0.7-1.4-1.5-0.9
				C222.2,196.8,221.6,198,221.6,199z"/>
			<path fill="#173D7A" d="M216.2,202.1c0,1,0.7,1.4,1.5,0.9c0.8-0.5,1.5-1.7,1.5-2.6c0-1-0.7-1.4-1.5-0.9
				C216.9,199.9,216.2,201.1,216.2,202.1z"/>
			<path fill="#173D7A" d="M193.6,217.9l3.1-1.8c0.5-0.3,0.8-1,0.8-1.6v-3.3c0-0.6-0.4-0.9-0.8-0.6l-3.1,1.8c-0.5,0.3-0.8,1-0.8,1.6
				v3.3C192.7,217.9,193.1,218.2,193.6,217.9z"/>
		</g>
		<g>
			<path fill="#5793CE" d="M189,249.8l66.1-38.1c1.5-0.9,2.7-3.1,2.7-5.1V194c0-2-1.2-2.9-2.7-2L189,230.1c-1.5,0.9-2.7,3.1-2.7,5.1
				v12.6C186.4,249.8,187.6,250.7,189,249.8z"/>
			<path opacity="0.4" fill="#D4ECFF" d="M190.9,245.4l62.3-36c0.8-0.4,1.4-1.6,1.4-2.6v-9.5c0-1-0.6-1.5-1.4-1l-62.3,36
				c-0.8,0.4-1.4,1.6-1.4,2.6v9.5C189.6,245.4,190.2,245.9,190.9,245.4z"/>
			<path fill="#D4ECFF" d="M240.2,212.2l9.3-5.4c0.7-0.4,1.3-1.5,1.3-2.5l0,0c0-1-0.6-1.4-1.3-1l-9.3,5.4c-0.7,0.4-1.3,1.5-1.3,2.5
				l0,0C238.9,212.2,239.5,212.6,240.2,212.2z"/>
			<path fill="#FFFFFF" d="M232.3,215c0,1,0.7,1.4,1.5,0.9c0.8-0.5,1.5-1.7,1.5-2.6c0-1-0.7-1.4-1.5-0.9
				C233,212.8,232.3,214,232.3,215z"/>
			<path fill="#173D7A" d="M226.9,218.1c0,1,0.7,1.4,1.5,0.9c0.8-0.5,1.5-1.7,1.5-2.6c0-1-0.7-1.4-1.5-0.9
				C227.6,215.9,226.9,217.1,226.9,218.1z"/>
			<path fill="#D4ECFF" d="M221.6,221.2c0,1,0.7,1.4,1.5,0.9c0.8-0.5,1.5-1.7,1.5-2.6c0-1-0.7-1.4-1.5-0.9
				C222.2,219,221.6,220.2,221.6,221.2z"/>
			<path fill="#173D7A" d="M216.2,224.3c0,1,0.7,1.4,1.5,0.9c0.8-0.5,1.5-1.7,1.5-2.6c0-1-0.7-1.4-1.5-0.9
				C216.9,222.1,216.2,223.3,216.2,224.3z"/>
			<path fill="#173D7A" d="M193.6,240.2l3.1-1.8c0.5-0.3,0.8-1,0.8-1.6v-3.3c0-0.6-0.4-0.9-0.8-0.6l-3.1,1.8c-0.5,0.3-0.8,1-0.8,1.6
				v3.3C192.7,240.1,193.1,240.4,193.6,240.2z"/>
		</g>
		<g>
			<path fill="#5793CE" d="M189,272.1l66.1-38.1c1.5-0.9,2.7-3.1,2.7-5.1v-12.6c0-2-1.2-2.9-2.7-2L189,252.3
				c-1.5,0.9-2.7,3.1-2.7,5.1V270C186.4,272,187.6,272.9,189,272.1z"/>
			<path opacity="0.4" fill="#D4ECFF" d="M190.9,267.6l62.3-36c0.8-0.4,1.4-1.6,1.4-2.6v-9.5c0-1-0.6-1.5-1.4-1l-62.3,36
				c-0.8,0.4-1.4,1.6-1.4,2.6v9.5C189.6,267.6,190.2,268.1,190.9,267.6z"/>
			<path fill="#D4ECFF" d="M240.2,234.4l9.3-5.4c0.7-0.4,1.3-1.5,1.3-2.5l0,0c0-1-0.6-1.4-1.3-1l-9.3,5.4c-0.7,0.4-1.3,1.5-1.3,2.5
				l0,0C238.9,234.4,239.5,234.8,240.2,234.4z"/>
			<path fill="#FFFFFF" d="M232.3,237.2c0,1,0.7,1.4,1.5,0.9c0.8-0.5,1.5-1.7,1.5-2.6c0-1-0.7-1.4-1.5-0.9
				C233,235.1,232.3,236.2,232.3,237.2z"/>
			<path fill="#173D7A" d="M226.9,240.3c0,1,0.7,1.4,1.5,0.9c0.8-0.5,1.5-1.7,1.5-2.6c0-1-0.7-1.4-1.5-0.9
				C227.6,238.2,226.9,239.3,226.9,240.3z"/>
			<path fill="#D4ECFF" d="M221.6,243.4c0,1,0.7,1.4,1.5,0.9c0.8-0.5,1.5-1.7,1.5-2.6c0-1-0.7-1.4-1.5-0.9
				C222.2,241.3,221.6,242.4,221.6,243.4z"/>
			<path fill="#173D7A" d="M216.2,246.5c0,1,0.7,1.4,1.5,0.9c0.8-0.5,1.5-1.7,1.5-2.6c0-1-0.7-1.4-1.5-0.9
				C216.9,244.4,216.2,245.5,216.2,246.5z"/>
			<path fill="#173D7A" d="M193.6,262.4l3.1-1.8c0.5-0.3,0.8-1,0.8-1.6v-3.3c0-0.6-0.4-0.9-0.8-0.6l-3.1,1.8c-0.5,0.3-0.8,1-0.8,1.6
				v3.3C192.7,262.4,193.1,262.6,193.6,262.4z"/>
		</g>
		<g>
			<path fill="#5793CE" d="M189,294.3l66.1-38.1c1.5-0.9,2.7-3.1,2.7-5.1v-12.6c0-2-1.2-2.9-2.7-2L189,274.5
				c-1.5,0.9-2.7,3.1-2.7,5.1v12.6C186.4,294.2,187.6,295.1,189,294.3z"/>
			<path opacity="0.4" fill="#D4ECFF" d="M190.9,289.9l62.3-36c0.8-0.4,1.4-1.6,1.4-2.6v-9.5c0-1-0.6-1.5-1.4-1l-62.3,36
				c-0.8,0.4-1.4,1.6-1.4,2.6v9.5C189.6,289.8,190.2,290.3,190.9,289.9z"/>
			<path fill="#D4ECFF" d="M240.2,256.6l9.3-5.4c0.7-0.4,1.3-1.5,1.3-2.5l0,0c0-1-0.6-1.4-1.3-1l-9.3,5.4c-0.7,0.4-1.3,1.5-1.3,2.5
				l0,0C238.9,256.6,239.5,257,240.2,256.6z"/>
			<path fill="#173D7A" d="M232.3,259.4c0,1,0.7,1.4,1.5,0.9c0.8-0.5,1.5-1.7,1.5-2.6s-0.7-1.4-1.5-0.9
				C233,257.3,232.3,258.5,232.3,259.4z"/>
			<path fill="#173D7A" d="M226.9,262.5c0,1,0.7,1.4,1.5,0.9c0.8-0.5,1.5-1.7,1.5-2.6c0-1-0.7-1.4-1.5-0.9
				C227.6,260.4,226.9,261.6,226.9,262.5z"/>
			<path fill="#D4ECFF" d="M221.6,265.6c0,1,0.7,1.4,1.5,0.9c0.8-0.5,1.5-1.7,1.5-2.6s-0.7-1.4-1.5-0.9
				C222.2,263.5,221.6,264.7,221.6,265.6z"/>
			<path fill="#173D7A" d="M216.2,268.7c0,1,0.7,1.4,1.5,0.9c0.8-0.5,1.5-1.7,1.5-2.6c0-1-0.7-1.4-1.5-0.9
				C216.9,266.6,216.2,267.8,216.2,268.7z"/>
			<path fill="#D4ECFF" d="M193.6,284.6l3.1-1.8c0.5-0.3,0.8-1,0.8-1.6v-3.3c0-0.6-0.4-0.9-0.8-0.6l-3.1,1.8c-0.5,0.3-0.8,1-0.8,1.6
				v3.3C192.7,284.6,193.1,284.9,193.6,284.6z"/>
		</g>
		<g>
			<path fill="#5793CE" d="M189,316.5l66.1-38.1c1.5-0.9,2.7-3.1,2.7-5.1v-12.6c0-2-1.2-2.9-2.7-2L189,296.8
				c-1.5,0.9-2.7,3.1-2.7,5.1v12.6C186.4,316.4,187.6,317.3,189,316.5z"/>
			<path opacity="0.4" fill="#D4ECFF" d="M190.9,312.1l62.3-36c0.8-0.4,1.4-1.6,1.4-2.6v-9.5c0-1-0.6-1.5-1.4-1l-62.3,36
				c-0.8,0.4-1.4,1.6-1.4,2.6v9.5C189.6,312,190.2,312.5,190.9,312.1z"/>
			<path fill="#D4ECFF" d="M240.2,278.8l9.3-5.4c0.7-0.4,1.3-1.5,1.3-2.5l0,0c0-1-0.6-1.4-1.3-1l-9.3,5.4c-0.7,0.4-1.3,1.5-1.3,2.5
				l0,0C238.9,278.8,239.5,279.2,240.2,278.8z"/>
			<path fill="#173D7A" d="M232.3,281.6c0,1,0.7,1.4,1.5,0.9c0.8-0.5,1.5-1.7,1.5-2.6s-0.7-1.4-1.5-0.9
				C233,279.5,232.3,280.7,232.3,281.6z"/>
			<path fill="#FFFFFF" d="M226.9,284.7c0,1,0.7,1.4,1.5,0.9c0.8-0.5,1.5-1.7,1.5-2.6c0-1-0.7-1.4-1.5-0.9
				C227.6,282.6,226.9,283.8,226.9,284.7z"/>
			<path fill="#D4ECFF" d="M221.6,287.8c0,1,0.7,1.4,1.5,0.9c0.8-0.5,1.5-1.7,1.5-2.6s-0.7-1.4-1.5-0.9
				C222.2,285.7,221.6,286.9,221.6,287.8z"/>
			<path fill="#FFFFFF" d="M216.2,290.9c0,1,0.7,1.4,1.5,0.9c0.8-0.5,1.5-1.7,1.5-2.6c0-1-0.7-1.4-1.5-0.9
				C216.9,288.8,216.2,290,216.2,290.9z"/>
			<path fill="#D4ECFF" d="M193.6,306.8l3.1-1.8c0.5-0.3,0.8-1,0.8-1.6v-3.3c0-0.6-0.4-0.9-0.8-0.6l-3.1,1.8c-0.5,0.3-0.8,1-0.8,1.6
				v3.3C192.7,306.8,193.1,307.1,193.6,306.8z"/>
		</g>
		<g>
			<path fill="#5793CE" d="M189,338.7l66.1-38.1c1.5-0.9,2.7-3.1,2.7-5.1v-12.6c0-2-1.2-2.9-2.7-2L189,319c-1.5,0.9-2.7,3.1-2.7,5.1
				v12.6C186.4,338.7,187.6,339.6,189,338.7z"/>
			<path opacity="0.4" fill="#D4ECFF" d="M190.9,334.3l62.3-36c0.8-0.4,1.4-1.6,1.4-2.6v-9.5c0-1-0.6-1.5-1.4-1l-62.3,36
				c-0.8,0.4-1.4,1.6-1.4,2.6v9.5C189.6,334.3,190.2,334.7,190.9,334.3z"/>
			<path fill="#D4ECFF" d="M240.2,301l9.3-5.4c0.7-0.4,1.3-1.5,1.3-2.5l0,0c0-1-0.6-1.4-1.3-1l-9.3,5.4c-0.7,0.4-1.3,1.5-1.3,2.5
				l0,0C238.9,301,239.5,301.5,240.2,301z"/>
			<path fill="#173D7A" d="M232.3,303.9c0,1,0.7,1.4,1.5,0.9c0.8-0.5,1.5-1.7,1.5-2.6s-0.7-1.4-1.5-0.9
				C233,301.7,232.3,302.9,232.3,303.9z"/>
			<path fill="#173D7A" d="M226.9,307c0,1,0.7,1.4,1.5,0.9c0.8-0.5,1.5-1.7,1.5-2.6c0-1-0.7-1.4-1.5-0.9
				C227.6,304.8,226.9,306,226.9,307z"/>
			<path fill="#D4ECFF" d="M221.6,310.1c0,1,0.7,1.4,1.5,0.9c0.8-0.5,1.5-1.7,1.5-2.6s-0.7-1.4-1.5-0.9
				C222.2,307.9,221.6,309.1,221.6,310.1z"/>
			<path fill="#173D7A" d="M216.2,313.2c0,1,0.7,1.4,1.5,0.9c0.8-0.5,1.5-1.7,1.5-2.6c0-1-0.7-1.4-1.5-0.9
				C216.9,311,216.2,312.2,216.2,313.2z"/>
			<path fill="#173D7A" d="M193.6,329l3.1-1.8c0.5-0.3,0.8-1,0.8-1.6v-3.3c0-0.6-0.4-0.9-0.8-0.6l-3.1,1.8c-0.5,0.3-0.8,1-0.8,1.6
				v3.3C192.7,329,193.1,329.3,193.6,329z"/>
		</g>
		<g>
			<path fill="#5793CE" d="M189,360.9l66.1-38.1c1.5-0.9,2.7-3.1,2.7-5.1v-12.6c0-2-1.2-2.9-2.7-2L189,341.2
				c-1.5,0.9-2.7,3.1-2.7,5.1v12.6C186.4,360.9,187.6,361.8,189,360.9z"/>
			<path opacity="0.4" fill="#D4ECFF" d="M190.9,356.5l62.3-36c0.8-0.4,1.4-1.6,1.4-2.6v-9.5c0-1-0.6-1.5-1.4-1l-62.3,36
				c-0.8,0.4-1.4,1.6-1.4,2.6v9.5C189.6,356.5,190.2,356.9,190.9,356.5z"/>
			<path fill="#D4ECFF" d="M240.2,323.3l9.3-5.4c0.7-0.4,1.3-1.5,1.3-2.5v0c0-1-0.6-1.4-1.3-1l-9.3,5.4c-0.7,0.4-1.3,1.5-1.3,2.5
				l0,0C238.9,323.2,239.5,323.7,240.2,323.3z"/>
			<path fill="#FFFFFF" d="M230.6,327.3c0,1.8,1.3,2.6,2.9,1.7c1.6-0.9,2.9-3.1,2.9-5c0-1.8-1.3-2.6-2.9-1.7
				C231.9,323.2,230.6,325.4,230.6,327.3z"/>
			<path fill="#173D7A" d="M219.5,333.8c0,1,0.7,1.4,1.5,0.9c0.8-0.5,1.5-1.7,1.5-2.6c0-1-0.7-1.4-1.5-0.9
				C220.2,331.6,219.5,332.8,219.5,333.8z"/>
			<path fill="#D4ECFF" d="M214.1,336.9c0,1,0.7,1.4,1.5,0.9c0.8-0.5,1.5-1.7,1.5-2.6c0-1-0.7-1.4-1.5-0.9
				C214.8,334.7,214.1,335.9,214.1,336.9z"/>
			<path fill="#173D7A" d="M208.7,340c0,1,0.7,1.4,1.5,0.9c0.8-0.5,1.5-1.7,1.5-2.6c0-1-0.7-1.4-1.5-0.9
				C209.4,337.8,208.7,339,208.7,340z"/>
			<path fill="#D4ECFF" d="M193.6,351.2l3.1-1.8c0.5-0.3,0.8-1,0.8-1.6v-3.3c0-0.6-0.4-0.9-0.8-0.6l-3.1,1.8c-0.5,0.3-0.8,1-0.8,1.6
				v3.3C192.7,351.2,193.1,351.5,193.6,351.2z"/>
		</g>
	</g>
	<g>
		<g>
			<g>
				<path fill="#396CAA" d="M342,325.4L342,325.4V160.8l65.4-17.1l12.1-7c2.8-1.6,7.6-1.4,10.8,0.4l11.2,6.5l34.9,0l-10.3,158.9
					c0.1,1.1-0.5,2.1-1.9,2.9L399,354.7c-2.8,1.6-7.6,1.4-10.8-0.4l-43.5-25.1C342.8,328.1,341.9,326.7,342,325.4z"/>
				<path fill="#D4ECFF" d="M424.5,135.6c2,0,4.1,0.6,5.8,1.5l11.2,6.5l34.9,0v165.1c0.1,1.1-0.5,2.1-1.9,2.9L399,354.7
					c-1.3,0.8-3.1,1.1-5,1.1l-0.8-166.1L424.5,135.6z"/>
				<path fill="#5793CE" d="M398.3,355c-2.4,1-5.8,1-8.6-0.1V187.7h8.6V355z"/>
				<path fill="#D4ECFF" d="M399,189.7l75.6-43.1c2.8-1.6,2.4-4.4-0.8-6.2l-43.5-25.1c-3.2-1.8-8-2-10.8-0.4l-75.6,43.1
					c-2.8,1.6-2.4,4.4,0.8,6.2l43.5,25.1C391.4,191.1,396.2,191.3,399,189.7z"/>
				<path fill="#FAFDFF" d="M344.6,161.1l43.5,25.1c3.2,1.8,8,2,10.8,0.4l75.6-43.1c0.6-0.4,1.1-0.8,1.4-1.2c1,1.5,0.5,3.2-1.4,4.3
					L399,189.7c-2.8,1.6-7.6,1.4-10.8-0.4l-43.5-25.1c-2.5-1.4-3.2-3.4-2.2-5C342.9,159.8,343.6,160.5,344.6,161.1z"/>
				<g>
					<path fill="#173D7A" d="M396.8,172.2l50.4-29.2c1.3-0.7,1.1-2.1-0.4-2.9l-20.4-11.8c-1.5-0.9-3.8-1-5.1-0.2L371,157.3
						c-1.3,0.7-1.1,2.1,0.4,2.9l20.4,11.8C393.3,172.9,395.5,173,396.8,172.2z"/>
					<g>
						<path fill="#D4ECFF" d="M424,144.3l2.9-1.7c0.2-0.1,0.2-0.3-0.1-0.4l-2.8-1.6c-0.2-0.1-0.5-0.1-0.7,0l-2.9,1.7
							c-0.2,0.1-0.2,0.3,0.1,0.4l2.8,1.6C423.5,144.4,423.8,144.4,424,144.3z"/>
						<path fill="#D4ECFF" d="M414.3,149.9l2.9-1.7c0.2-0.1,0.2-0.3-0.1-0.4l-2.8-1.6c-0.2-0.1-0.5-0.1-0.7,0l-2.9,1.7
							c-0.2,0.1-0.2,0.3,0.1,0.4l2.8,1.6C413.8,150,414.1,150,414.3,149.9z"/>
						<path fill="#D4ECFF" d="M404.5,155.5l2.9-1.7c0.2-0.1,0.2-0.3-0.1-0.4l-2.8-1.6c-0.2-0.1-0.5-0.1-0.7,0l-2.9,1.7
							c-0.2,0.1-0.2,0.3,0.1,0.4l2.8,1.6C404,155.6,404.3,155.6,404.5,155.5z"/>
						<path fill="#D4ECFF" d="M394.8,161.1l2.9-1.7c0.2-0.1,0.2-0.3-0.1-0.4l-2.8-1.6c-0.2-0.1-0.5-0.1-0.7,0l-2.9,1.7
							c-0.2,0.1-0.2,0.3,0.1,0.4l2.8,1.6C394.3,161.2,394.6,161.2,394.8,161.1z"/>
					</g>
					<path fill="#5793CE" d="M447.2,143L447.2,143c-0.2,0-0.2-0.1-0.4-0.2l-20.4-11.8c-1.5-0.9-3.8-1-5.1-0.2L371.1,160
						c-1.2-0.9-1.3-2-0.1-2.7l50.4-29.2c1.3-0.7,3.6-0.7,5.1,0.2l20.4,11.8C448.3,141,448.5,142.3,447.2,143z"/>
				</g>
			</g>
			<g>
				<path fill="#173D7A" d="M379.7,222.3L351,205.9c-1.6-0.9-2.9-3.4-2.9-5.6v-10.2c0-2.1,1.3-3.1,2.9-2.2l28.6,16.4
					c1.6,0.9,2.9,3.4,2.9,5.6v10.2C382.6,222.2,381.3,223.2,379.7,222.3z"/>
				<path fill="#FFFFFF" d="M349.6,187.6c-0.5,0.4-0.7,1.1-0.7,2.1V200c0,2.1,1.3,4.6,2.9,5.6l28.6,16.4c0.5,0.3,1,0.4,1.4,0.3
					c-0.5,0.5-1.3,0.6-2.2,0.1L351,205.9c-1.6-0.9-2.9-3.4-2.9-5.6v-10.2C348.1,188.6,348.7,187.7,349.6,187.6z"/>
				<g>
					<path fill="#396CAA" d="M371.1,211.2l-2.6-1.5c-0.4-0.2-0.6-0.7-0.6-1.2v-2.8c0-0.5,0.3-0.7,0.6-0.5l2.6,1.5
						c0.4,0.2,0.6,0.7,0.6,1.2v2.8C371.7,211.2,371.4,211.4,371.1,211.2z"/>
					<path fill="#FFFFFF" d="M362.3,206.1l-2.6-1.5c-0.4-0.2-0.6-0.7-0.6-1.2v-2.8c0-0.5,0.3-0.7,0.6-0.5l2.6,1.5
						c0.4,0.2,0.6,0.7,0.6,1.2v2.8C362.9,206.1,362.6,206.3,362.3,206.1z"/>
				</g>
			</g>
			<g>
				<path fill="#173D7A" d="M379.7,296.3L351,279.9c-1.6-0.9-2.9-3.4-2.9-5.6v-10.2c0-2.1,1.3-3.1,2.9-2.2l28.6,16.4
					c1.6,0.9,2.9,3.4,2.9,5.6v10.2C382.6,296.2,381.3,297.2,379.7,296.3z"/>
				<path fill="#FFFFFF" d="M349.6,261.6c-0.5,0.4-0.7,1.1-0.7,2.1V274c0,2.1,1.3,4.6,2.9,5.6l28.6,16.4c0.5,0.3,1,0.4,1.4,0.3
					c-0.5,0.5-1.3,0.6-2.2,0.1L351,279.9c-1.6-0.9-2.9-3.4-2.9-5.6v-10.2C348.1,262.6,348.7,261.7,349.6,261.6z"/>
				<g>
					<path fill="#396CAA" d="M371.1,285.2l-2.6-1.5c-0.4-0.2-0.6-0.7-0.6-1.2v-2.8c0-0.5,0.3-0.7,0.6-0.5l2.6,1.5
						c0.4,0.2,0.6,0.7,0.6,1.2v2.8C371.7,285.2,371.4,285.4,371.1,285.2z"/>
					<path fill="#FFFFFF" d="M362.3,280.1l-2.6-1.5c-0.4-0.2-0.6-0.7-0.6-1.2v-2.8c0-0.5,0.3-0.7,0.6-0.5l2.6,1.5
						c0.4,0.2,0.6,0.7,0.6,1.2v2.8C362.9,280.1,362.6,280.3,362.3,280.1z"/>
				</g>
			</g>
			<g>
				<path fill="#173D7A" d="M379.7,333.3L351,316.9c-1.6-0.9-2.9-3.4-2.9-5.6v-10.2c0-2.1,1.3-3.1,2.9-2.2l28.6,16.4
					c1.6,0.9,2.9,3.4,2.9,5.6v10.2C382.6,333.2,381.3,334.2,379.7,333.3z"/>
				<path fill="#FFFFFF" d="M349.6,298.6c-0.5,0.4-0.7,1.1-0.7,2.1V311c0,2.1,1.3,4.6,2.9,5.6l28.6,16.4c0.5,0.3,1,0.4,1.4,0.3
					c-0.5,0.5-1.3,0.6-2.2,0.1L351,316.9c-1.6-0.9-2.9-3.4-2.9-5.6v-10.2C348.1,299.6,348.7,298.7,349.6,298.6z"/>
				<g>
					<path fill="#396CAA" d="M371.1,322.2l-2.6-1.5c-0.4-0.2-0.6-0.7-0.6-1.2v-2.8c0-0.5,0.3-0.7,0.6-0.5l2.6,1.5
						c0.4,0.2,0.6,0.7,0.6,1.2v2.8C371.7,322.2,371.4,322.4,371.1,322.2z"/>
					<path fill="#FFFFFF" d="M362.3,317.1l-2.6-1.5c-0.4-0.2-0.6-0.7-0.6-1.2v-2.8c0-0.5,0.3-0.7,0.6-0.5l2.6,1.5
						c0.4,0.2,0.6,0.7,0.6,1.2v2.8C362.9,317.1,362.6,317.3,362.3,317.1z"/>
				</g>
			</g>
			<g>
				<path fill="#173D7A" d="M379.7,259.3L351,242.9c-1.6-0.9-2.9-3.4-2.9-5.6v-10.2c0-2.1,1.3-3.1,2.9-2.2l28.6,16.4
					c1.6,0.9,2.9,3.4,2.9,5.6v10.2C382.6,259.2,381.3,260.2,379.7,259.3z"/>
				<path fill="#FFFFFF" d="M349.6,224.6c-0.5,0.4-0.7,1.1-0.7,2.1V237c0,2.1,1.3,4.6,2.9,5.6l28.6,16.4c0.5,0.3,1,0.4,1.4,0.3
					c-0.5,0.5-1.3,0.6-2.2,0.1L351,242.9c-1.6-0.9-2.9-3.4-2.9-5.6v-10.2C348.1,225.6,348.7,224.7,349.6,224.6z"/>
				<g>
					<path fill="#396CAA" d="M371.1,248.2l-2.6-1.5c-0.4-0.2-0.6-0.7-0.6-1.2v-2.8c0-0.5,0.3-0.7,0.6-0.5l2.6,1.5
						c0.4,0.2,0.6,0.7,0.6,1.2v2.8C371.7,248.2,371.4,248.4,371.1,248.2z"/>
					<path fill="#FFFFFF" d="M362.3,243.1l-2.6-1.5c-0.4-0.2-0.6-0.7-0.6-1.2v-2.8c0-0.5,0.3-0.7,0.6-0.5l2.6,1.5
						c0.4,0.2,0.6,0.7,0.6,1.2v2.8C362.9,243.1,362.6,243.3,362.3,243.1z"/>
				</g>
			</g>
		</g>
		<g>
			<path fill="#5793CE" d="M404.5,211.8l66.1-38.1c1.5-0.9,2.7-3.1,2.7-5.1V156c0-2-1.2-2.9-2.7-2l-66.1,38.1
				c-1.5,0.9-2.7,3.1-2.7,5.1v12.6C401.8,211.8,403,212.7,404.5,211.8z"/>
			<path opacity="0.4" fill="#D4ECFF" d="M406.4,207.4l62.3-36c0.8-0.4,1.4-1.6,1.4-2.6v-9.5c0-1-0.6-1.5-1.4-1l-62.3,36
				c-0.8,0.4-1.4,1.6-1.4,2.6v9.5C405,207.4,405.6,207.8,406.4,207.4z"/>
			<path fill="#D4ECFF" d="M455.7,174.2l9.3-5.4c0.7-0.4,1.3-1.5,1.3-2.5l0,0c0-1-0.6-1.4-1.3-1l-9.3,5.4c-0.7,0.4-1.3,1.5-1.3,2.5
				l0,0C454.3,174.1,454.9,174.6,455.7,174.2z"/>
			<path fill="#173D7A" d="M447.7,177c0,1,0.7,1.4,1.5,0.9c0.8-0.5,1.5-1.7,1.5-2.6c0-1-0.7-1.4-1.5-0.9
				C448.4,174.8,447.7,176,447.7,177z"/>
			<path fill="#173D7A" d="M442.4,180.1c0,1,0.7,1.4,1.5,0.9c0.8-0.5,1.5-1.7,1.5-2.6c0-1-0.7-1.4-1.5-0.9
				C443,177.9,442.4,179.1,442.4,180.1z"/>
			<path fill="#D4ECFF" d="M437,183.2c0,1,0.7,1.4,1.5,0.9c0.8-0.5,1.5-1.7,1.5-2.6c0-1-0.7-1.4-1.5-0.9
				C437.7,181,437,182.2,437,183.2z"/>
			<path fill="#173D7A" d="M431.6,186.3c0,1,0.7,1.4,1.5,0.9c0.8-0.5,1.5-1.7,1.5-2.6c0-1-0.7-1.4-1.5-0.9
				C432.3,184.1,431.6,185.3,431.6,186.3z"/>
			<path fill="#173D7A" d="M409,202.1l3.1-1.8c0.5-0.3,0.8-1,0.8-1.6v-3.3c0-0.6-0.4-0.9-0.8-0.6l-3.1,1.8c-0.5,0.3-0.8,1-0.8,1.6
				v3.3C408.1,202.1,408.5,202.4,409,202.1z"/>
		</g>
		<g>
			<path fill="#5793CE" d="M404.5,234l66.1-38.1c1.5-0.9,2.7-3.1,2.7-5.1v-12.6c0-2-1.2-2.9-2.7-2l-66.1,38.1
				c-1.5,0.9-2.7,3.1-2.7,5.1V232C401.8,234,403,234.9,404.5,234z"/>
			<path opacity="0.4" fill="#D4ECFF" d="M406.4,229.6l62.3-36c0.8-0.4,1.4-1.6,1.4-2.6v-9.5c0-1-0.6-1.5-1.4-1l-62.3,36
				c-0.8,0.4-1.4,1.6-1.4,2.6v9.5C405,229.6,405.6,230.1,406.4,229.6z"/>
			<path fill="#D4ECFF" d="M455.7,196.4l9.3-5.4c0.7-0.4,1.3-1.5,1.3-2.5l0,0c0-1-0.6-1.4-1.3-1l-9.3,5.4c-0.7,0.4-1.3,1.5-1.3,2.5
				l0,0C454.3,196.3,454.9,196.8,455.7,196.4z"/>
			<path fill="#FFFFFF" d="M447.7,199.2c0,1,0.7,1.4,1.5,0.9c0.8-0.5,1.5-1.7,1.5-2.6c0-1-0.7-1.4-1.5-0.9
				C448.4,197,447.7,198.2,447.7,199.2z"/>
			<path fill="#173D7A" d="M442.4,202.3c0,1,0.7,1.4,1.5,0.9c0.8-0.5,1.5-1.7,1.5-2.6c0-1-0.7-1.4-1.5-0.9
				C443,200.1,442.4,201.3,442.4,202.3z"/>
			<path fill="#D4ECFF" d="M437,205.4c0,1,0.7,1.4,1.5,0.9c0.8-0.5,1.5-1.7,1.5-2.6c0-1-0.7-1.4-1.5-0.9
				C437.7,203.2,437,204.4,437,205.4z"/>
			<path fill="#173D7A" d="M431.6,208.5c0,1,0.7,1.4,1.5,0.9c0.8-0.5,1.5-1.7,1.5-2.6c0-1-0.7-1.4-1.5-0.9
				C432.3,206.3,431.6,207.5,431.6,208.5z"/>
			<path fill="#173D7A" d="M409,224.3l3.1-1.8c0.5-0.3,0.8-1,0.8-1.6v-3.3c0-0.6-0.4-0.9-0.8-0.6l-3.1,1.8c-0.5,0.3-0.8,1-0.8,1.6
				v3.3C408.1,224.3,408.5,224.6,409,224.3z"/>
		</g>
		<g>
			<path fill="#5793CE" d="M404.5,256.3l66.1-38.1c1.5-0.9,2.7-3.1,2.7-5.1v-12.6c0-2-1.2-2.9-2.7-2l-66.1,38.1
				c-1.5,0.9-2.7,3.1-2.7,5.1v12.6C401.8,256.2,403,257.1,404.5,256.3z"/>
			<path opacity="0.4" fill="#D4ECFF" d="M406.4,251.8l62.3-36c0.8-0.4,1.4-1.6,1.4-2.6v-9.5c0-1-0.6-1.5-1.4-1l-62.3,36
				c-0.8,0.4-1.4,1.6-1.4,2.6v9.5C405,251.8,405.6,252.3,406.4,251.8z"/>
			<path fill="#D4ECFF" d="M455.7,218.6l9.3-5.4c0.7-0.4,1.3-1.5,1.3-2.5l0,0c0-1-0.6-1.4-1.3-1l-9.3,5.4c-0.7,0.4-1.3,1.5-1.3,2.5
				l0,0C454.3,218.6,454.9,219,455.7,218.6z"/>
			<path fill="#FFFFFF" d="M447.7,221.4c0,1,0.7,1.4,1.5,0.9c0.8-0.5,1.5-1.7,1.5-2.6c0-1-0.7-1.4-1.5-0.9S447.7,220.4,447.7,221.4z
				"/>
			<path fill="#173D7A" d="M442.4,224.5c0,1,0.7,1.4,1.5,0.9c0.8-0.5,1.5-1.7,1.5-2.6c0-1-0.7-1.4-1.5-0.9
				C443,222.4,442.4,223.5,442.4,224.5z"/>
			<path fill="#D4ECFF" d="M437,227.6c0,1,0.7,1.4,1.5,0.9s1.5-1.7,1.5-2.6c0-1-0.7-1.4-1.5-0.9C437.7,225.5,437,226.6,437,227.6z"
				/>
			<path fill="#173D7A" d="M431.6,230.7c0,1,0.7,1.4,1.5,0.9c0.8-0.5,1.5-1.7,1.5-2.6c0-1-0.7-1.4-1.5-0.9
				C432.3,228.6,431.6,229.7,431.6,230.7z"/>
			<path fill="#173D7A" d="M409,246.6l3.1-1.8c0.5-0.3,0.8-1,0.8-1.6v-3.3c0-0.6-0.4-0.9-0.8-0.6L409,241c-0.5,0.3-0.8,1-0.8,1.6
				v3.3C408.1,246.5,408.5,246.8,409,246.6z"/>
		</g>
		<g>
			<path fill="#5793CE" d="M404.5,278.5l66.1-38.1c1.5-0.9,2.7-3.1,2.7-5.1v-12.6c0-2-1.2-2.9-2.7-2l-66.1,38.1
				c-1.5,0.9-2.7,3.1-2.7,5.1v12.6C401.8,278.4,403,279.3,404.5,278.5z"/>
			<path opacity="0.4" fill="#D4ECFF" d="M406.4,274.1l62.3-36c0.8-0.4,1.4-1.6,1.4-2.6V226c0-1-0.6-1.5-1.4-1l-62.3,36
				c-0.8,0.4-1.4,1.6-1.4,2.6v9.5C405,274,405.6,274.5,406.4,274.1z"/>
			<path fill="#D4ECFF" d="M455.7,240.8l9.3-5.4c0.7-0.4,1.3-1.5,1.3-2.5l0,0c0-1-0.6-1.4-1.3-1l-9.3,5.4c-0.7,0.4-1.3,1.5-1.3,2.5
				l0,0C454.3,240.8,454.9,241.2,455.7,240.8z"/>
			<path fill="#173D7A" d="M447.7,243.6c0,1,0.7,1.4,1.5,0.9c0.8-0.5,1.5-1.7,1.5-2.6c0-1-0.7-1.4-1.5-0.9
				C448.4,241.5,447.7,242.6,447.7,243.6z"/>
			<path fill="#173D7A" d="M442.4,246.7c0,1,0.7,1.4,1.5,0.9c0.8-0.5,1.5-1.7,1.5-2.6c0-1-0.7-1.4-1.5-0.9
				C443,244.6,442.4,245.7,442.4,246.7z"/>
			<path fill="#D4ECFF" d="M437,249.8c0,1,0.7,1.4,1.5,0.9c0.8-0.5,1.5-1.7,1.5-2.6c0-1-0.7-1.4-1.5-0.9
				C437.7,247.7,437,248.8,437,249.8z"/>
			<path fill="#173D7A" d="M431.6,252.9c0,1,0.7,1.4,1.5,0.9c0.8-0.5,1.5-1.7,1.5-2.6c0-1-0.7-1.4-1.5-0.9
				C432.3,250.8,431.6,252,431.6,252.9z"/>
			<path fill="#D4ECFF" d="M409,268.8l3.1-1.8c0.5-0.3,0.8-1,0.8-1.6V262c0-0.6-0.4-0.9-0.8-0.6l-3.1,1.8c-0.5,0.3-0.8,1-0.8,1.6
				v3.3C408.1,268.8,408.5,269,409,268.8z"/>
		</g>
		<g>
			<path fill="#5793CE" d="M404.5,300.7l66.1-38.1c1.5-0.9,2.7-3.1,2.7-5.1v-12.6c0-2-1.2-2.9-2.7-2l-66.1,38.1
				c-1.5,0.9-2.7,3.1-2.7,5.1v12.6C401.8,300.6,403,301.5,404.5,300.7z"/>
			<path opacity="0.4" fill="#D4ECFF" d="M406.4,296.3l62.3-36c0.8-0.4,1.4-1.6,1.4-2.6v-9.5c0-1-0.6-1.5-1.4-1l-62.3,36
				c-0.8,0.4-1.4,1.6-1.4,2.6v9.5C405,296.2,405.6,296.7,406.4,296.3z"/>
			<path fill="#D4ECFF" d="M455.7,263l9.3-5.4c0.7-0.4,1.3-1.5,1.3-2.5l0,0c0-1-0.6-1.4-1.3-1l-9.3,5.4c-0.7,0.4-1.3,1.5-1.3,2.5
				l0,0C454.3,263,454.9,263.4,455.7,263z"/>
			<path fill="#173D7A" d="M447.7,265.8c0,1,0.7,1.4,1.5,0.9c0.8-0.5,1.5-1.7,1.5-2.6c0-1-0.7-1.4-1.5-0.9S447.7,264.9,447.7,265.8z
				"/>
			<path fill="#FFFFFF" d="M442.4,268.9c0,1,0.7,1.4,1.5,0.9c0.8-0.5,1.5-1.7,1.5-2.6c0-1-0.7-1.4-1.5-0.9
				C443,266.8,442.4,268,442.4,268.9z"/>
			<path fill="#D4ECFF" d="M437,272c0,1,0.7,1.4,1.5,0.9c0.8-0.5,1.5-1.7,1.5-2.6c0-1-0.7-1.4-1.5-0.9S437,271.1,437,272z"/>
			<path fill="#FFFFFF" d="M431.6,275.1c0,1,0.7,1.4,1.5,0.9c0.8-0.5,1.5-1.7,1.5-2.6c0-1-0.7-1.4-1.5-0.9
				C432.3,273,431.6,274.2,431.6,275.1z"/>
			<path fill="#D4ECFF" d="M409,291l3.1-1.8c0.5-0.3,0.8-1,0.8-1.6v-3.3c0-0.6-0.4-0.9-0.8-0.6l-3.1,1.8c-0.5,0.3-0.8,1-0.8,1.6v3.3
				C408.1,291,408.5,291.3,409,291z"/>
		</g>
		<g>
			<path fill="#5793CE" d="M404.5,322.9l66.1-38.1c1.5-0.9,2.7-3.1,2.7-5.1V267c0-2-1.2-2.9-2.7-2l-66.1,38.1
				c-1.5,0.9-2.7,3.1-2.7,5.1v12.6C401.8,322.8,403,323.8,404.5,322.9z"/>
			<path opacity="0.4" fill="#D4ECFF" d="M406.4,318.5l62.3-36c0.8-0.4,1.4-1.6,1.4-2.6v-9.5c0-1-0.6-1.5-1.4-1l-62.3,36
				c-0.8,0.4-1.4,1.6-1.4,2.6v9.5C405,318.5,405.6,318.9,406.4,318.5z"/>
			<path fill="#D4ECFF" d="M455.7,285.2l9.3-5.4c0.7-0.4,1.3-1.5,1.3-2.5l0,0c0-1-0.6-1.4-1.3-1l-9.3,5.4c-0.7,0.4-1.3,1.5-1.3,2.5
				l0,0C454.3,285.2,454.9,285.7,455.7,285.2z"/>
			<path fill="#173D7A" d="M447.7,288c0,1,0.7,1.4,1.5,0.9s1.5-1.7,1.5-2.6c0-1-0.7-1.4-1.5-0.9C448.4,285.9,447.7,287.1,447.7,288z
				"/>
			<path fill="#173D7A" d="M442.4,291.1c0,1,0.7,1.4,1.5,0.9c0.8-0.5,1.5-1.7,1.5-2.6c0-1-0.7-1.4-1.5-0.9
				C443,289,442.4,290.2,442.4,291.1z"/>
			<path fill="#D4ECFF" d="M437,294.3c0,1,0.7,1.4,1.5,0.9c0.8-0.5,1.5-1.7,1.5-2.6c0-1-0.7-1.4-1.5-0.9
				C437.7,292.1,437,293.3,437,294.3z"/>
			<path fill="#173D7A" d="M431.6,297.4c0,1,0.7,1.4,1.5,0.9c0.8-0.5,1.5-1.7,1.5-2.6c0-1-0.7-1.4-1.5-0.9
				C432.3,295.2,431.6,296.4,431.6,297.4z"/>
			<path fill="#173D7A" d="M409,313.2l3.1-1.8c0.5-0.3,0.8-1,0.8-1.6v-3.3c0-0.6-0.4-0.9-0.8-0.6l-3.1,1.8c-0.5,0.3-0.8,1-0.8,1.6
				v3.3C408.1,313.2,408.5,313.5,409,313.2z"/>
		</g>
		<g>
			<path fill="#5793CE" d="M404.5,345.1l66.1-38.1c1.5-0.9,2.7-3.1,2.7-5.1v-12.6c0-2-1.2-2.9-2.7-2l-66.1,38.1
				c-1.5,0.9-2.7,3.1-2.7,5.1v12.6C401.8,345.1,403,346,404.5,345.1z"/>
			<path opacity="0.4" fill="#D4ECFF" d="M406.4,340.7l62.3-36c0.8-0.4,1.4-1.6,1.4-2.6v-9.5c0-1-0.6-1.5-1.4-1l-62.3,36
				c-0.8,0.4-1.4,1.6-1.4,2.6v9.5C405,340.7,405.6,341.1,406.4,340.7z"/>
			<path fill="#D4ECFF" d="M455.7,307.4l9.3-5.4c0.7-0.4,1.3-1.5,1.3-2.5l0,0c0-1-0.6-1.4-1.3-1l-9.3,5.4c-0.7,0.4-1.3,1.5-1.3,2.5
				l0,0C454.3,307.4,454.9,307.9,455.7,307.4z"/>
			<path fill="#FFFFFF" d="M446,311.5c0,1.8,1.3,2.6,2.9,1.7c1.6-0.9,2.9-3.1,2.9-5c0-1.8-1.3-2.6-2.9-1.7
				C447.3,307.4,446,309.6,446,311.5z"/>
			<path fill="#173D7A" d="M434.9,318c0,1,0.7,1.4,1.5,0.9c0.8-0.5,1.5-1.7,1.5-2.6c0-1-0.7-1.4-1.5-0.9S434.9,317,434.9,318z"/>
			<path fill="#D4ECFF" d="M429.5,321.1c0,1,0.7,1.4,1.5,0.9s1.5-1.7,1.5-2.6c0-1-0.7-1.4-1.5-0.9
				C430.2,318.9,429.5,320.1,429.5,321.1z"/>
			<path fill="#173D7A" d="M424.2,324.2c0,1,0.7,1.4,1.5,0.9c0.8-0.5,1.5-1.7,1.5-2.6c0-1-0.7-1.4-1.5-0.9S424.2,323.2,424.2,324.2z
				"/>
			<path fill="#D4ECFF" d="M409,335.4l3.1-1.8c0.5-0.3,0.8-1,0.8-1.6v-3.3c0-0.6-0.4-0.9-0.8-0.6l-3.1,1.8c-0.5,0.3-0.8,1-0.8,1.6
				v3.3C408.1,335.4,408.5,335.7,409,335.4z"/>
		</g>
	</g>
	<g>
		<g>
			<g>
				<path fill="#396CAA" d="M220.6,395.3L220.6,395.3V230.7l65.4-17.1l12.1-7c2.8-1.6,7.6-1.4,10.8,0.4l11.2,6.5l34.9,0l-10.3,158.9
					c0.1,1.1-0.5,2.1-1.9,2.9l-65.3,49.3c-2.8,1.6-7.6,1.4-10.8-0.4L223.2,399C221.4,398,220.5,396.6,220.6,395.3z"/>
				<path fill="#D4ECFF" d="M303.1,205.5c2,0,4.1,0.6,5.8,1.5l11.2,6.5l34.9,0v165.1c0.1,1.1-0.5,2.1-1.9,2.9l-75.6,43.1
					c-1.3,0.8-3.1,1.1-5,1.1l-0.8-166.1L303.1,205.5z"/>
				<path fill="#5793CE" d="M276.9,424.9c-2.4,1-5.8,1-8.6-0.1V257.6h8.6V424.9z"/>
				<path fill="#D4ECFF" d="M277.5,259.6l75.6-43.1c2.8-1.6,2.4-4.4-0.8-6.2l-43.5-25.1c-3.2-1.8-8-2-10.8-0.4l-75.6,43.1
					c-2.8,1.6-2.4,4.4,0.8,6.2l43.5,25.1C270,261,274.8,261.2,277.5,259.6z"/>
				<path fill="#FAFDFF" d="M223.2,230.9l43.5,25.1c3.2,1.8,8,2,10.8,0.4l75.6-43.1c0.6-0.4,1.1-0.8,1.4-1.2c1,1.5,0.5,3.2-1.4,4.3
					l-75.6,43.1c-2.8,1.6-7.6,1.4-10.8-0.4L223.2,234c-2.5-1.4-3.2-3.4-2.2-5C221.5,229.7,222.2,230.4,223.2,230.9z"/>
				<g>
					<path fill="#173D7A" d="M275.4,242.1l50.4-29.2c1.3-0.7,1.1-2.1-0.4-2.9L305,198.2c-1.5-0.9-3.8-1-5.1-0.2l-50.4,29.2
						c-1.3,0.7-1.1,2.1,0.4,2.9l20.4,11.8C271.9,242.8,274.1,242.8,275.4,242.1z"/>
					<g>
						<path fill="#D4ECFF" d="M302.6,214.2l2.9-1.7c0.2-0.1,0.2-0.3-0.1-0.4l-2.8-1.6c-0.2-0.1-0.5-0.1-0.7,0l-2.9,1.7
							c-0.2,0.1-0.2,0.3,0.1,0.4l2.8,1.6C302.1,214.3,302.4,214.3,302.6,214.2z"/>
						<path fill="#D4ECFF" d="M292.9,219.8l2.9-1.7c0.2-0.1,0.2-0.3-0.1-0.4l-2.8-1.6c-0.2-0.1-0.5-0.1-0.7,0l-2.9,1.7
							c-0.2,0.1-0.2,0.3,0.1,0.4l2.8,1.6C292.4,219.9,292.7,219.9,292.9,219.8z"/>
						<path fill="#D4ECFF" d="M283.1,225.4l2.9-1.7c0.2-0.1,0.2-0.3-0.1-0.4l-2.8-1.6c-0.2-0.1-0.5-0.1-0.7,0l-2.9,1.7
							c-0.2,0.1-0.2,0.3,0.1,0.4l2.8,1.6C282.6,225.5,282.9,225.5,283.1,225.4z"/>
						<path fill="#D4ECFF" d="M273.3,231l2.9-1.7c0.2-0.1,0.2-0.3-0.1-0.4l-2.8-1.6c-0.2-0.1-0.5-0.1-0.7,0l-2.9,1.7
							c-0.2,0.1-0.2,0.3,0.1,0.4l2.8,1.6C272.9,231.1,273.2,231.1,273.3,231z"/>
					</g>
					<path fill="#5793CE" d="M325.8,212.9L325.8,212.9c-0.2,0-0.2-0.1-0.4-0.2L305,201c-1.5-0.9-3.8-1-5.1-0.2l-50.3,29.2
						c-1.2-0.9-1.3-2-0.1-2.7L300,198c1.3-0.7,3.6-0.7,5.1,0.2l20.4,11.8C326.9,210.9,327.1,212.2,325.8,212.9z"/>
				</g>
			</g>
			<g>
				<path fill="#173D7A" d="M258.3,292.2l-28.6-16.4c-1.6-0.9-2.9-3.4-2.9-5.6V260c0-2.1,1.3-3.1,2.9-2.2l28.6,16.4
					c1.6,0.9,2.9,3.4,2.9,5.6V290C261.2,292.1,259.9,293.1,258.3,292.2z"/>
				<path fill="#FFFFFF" d="M228.2,257.5c-0.5,0.4-0.7,1.1-0.7,2.1v10.2c0,2.1,1.3,4.6,2.9,5.6l28.6,16.4c0.5,0.3,1,0.4,1.4,0.3
					c-0.5,0.5-1.3,0.6-2.2,0.1l-28.6-16.4c-1.6-0.9-2.9-3.4-2.9-5.6V260C226.7,258.5,227.3,257.6,228.2,257.5z"/>
				<g>
					<path fill="#396CAA" d="M249.6,281.1l-2.6-1.5c-0.4-0.2-0.6-0.7-0.6-1.2v-2.8c0-0.5,0.3-0.7,0.6-0.5l2.6,1.5
						c0.4,0.2,0.6,0.7,0.6,1.2v2.8C250.3,281.1,250,281.3,249.6,281.1z"/>
					<path fill="#FFFFFF" d="M240.9,276l-2.6-1.5c-0.4-0.2-0.6-0.7-0.6-1.2v-2.8c0-0.5,0.3-0.7,0.6-0.5l2.6,1.5
						c0.4,0.2,0.6,0.7,0.6,1.2v2.8C241.5,276,241.2,276.2,240.9,276z"/>
				</g>
			</g>
			<g>
				<path fill="#173D7A" d="M258.3,366.2l-28.6-16.4c-1.6-0.9-2.9-3.4-2.9-5.6V334c0-2.1,1.3-3.1,2.9-2.2l28.6,16.4
					c1.6,0.9,2.9,3.4,2.9,5.6V364C261.2,366.1,259.9,367.1,258.3,366.2z"/>
				<path fill="#FFFFFF" d="M228.2,331.5c-0.5,0.4-0.7,1.1-0.7,2.1v10.2c0,2.1,1.3,4.6,2.9,5.6l28.6,16.4c0.5,0.3,1,0.4,1.4,0.3
					c-0.5,0.5-1.3,0.6-2.2,0.1l-28.6-16.4c-1.6-0.9-2.9-3.4-2.9-5.6V334C226.7,332.5,227.3,331.6,228.2,331.5z"/>
				<g>
					<path fill="#396CAA" d="M249.6,355.1l-2.6-1.5c-0.4-0.2-0.6-0.7-0.6-1.2v-2.8c0-0.5,0.3-0.7,0.6-0.5l2.6,1.5
						c0.4,0.2,0.6,0.7,0.6,1.2v2.8C250.3,355.1,250,355.3,249.6,355.1z"/>
					<path fill="#FFFFFF" d="M240.9,350l-2.6-1.5c-0.4-0.2-0.6-0.7-0.6-1.2v-2.8c0-0.5,0.3-0.7,0.6-0.5l2.6,1.5
						c0.4,0.2,0.6,0.7,0.6,1.2v2.8C241.5,350,241.2,350.2,240.9,350z"/>
				</g>
			</g>
			<g>
				<path fill="#173D7A" d="M258.3,403.2l-28.6-16.4c-1.6-0.9-2.9-3.4-2.9-5.6V371c0-2.1,1.3-3.1,2.9-2.2l28.6,16.4
					c1.6,0.9,2.9,3.4,2.9,5.6V401C261.2,403.1,259.9,404.1,258.3,403.2z"/>
				<path fill="#FFFFFF" d="M228.2,368.5c-0.5,0.4-0.7,1.1-0.7,2.1v10.2c0,2.1,1.3,4.6,2.9,5.6l28.6,16.4c0.5,0.3,1,0.4,1.4,0.3
					c-0.5,0.5-1.3,0.6-2.2,0.1l-28.6-16.4c-1.6-0.9-2.9-3.4-2.9-5.6V371C226.7,369.5,227.3,368.6,228.2,368.5z"/>
				<g>
					<path fill="#396CAA" d="M249.6,392.1l-2.6-1.5c-0.4-0.2-0.6-0.7-0.6-1.2v-2.8c0-0.5,0.3-0.7,0.6-0.5l2.6,1.5
						c0.4,0.2,0.6,0.7,0.6,1.2v2.8C250.3,392.1,250,392.3,249.6,392.1z"/>
					<path fill="#FFFFFF" d="M240.9,387l-2.6-1.5c-0.4-0.2-0.6-0.7-0.6-1.2v-2.8c0-0.5,0.3-0.7,0.6-0.5l2.6,1.5
						c0.4,0.2,0.6,0.7,0.6,1.2v2.8C241.5,387,241.2,387.2,240.9,387z"/>
				</g>
			</g>
			<g>
				<path fill="#173D7A" d="M258.3,329.2l-28.6-16.4c-1.6-0.9-2.9-3.4-2.9-5.6V297c0-2.1,1.3-3.1,2.9-2.2l28.6,16.4
					c1.6,0.9,2.9,3.4,2.9,5.6V327C261.2,329.1,259.9,330.1,258.3,329.2z"/>
				<path fill="#FFFFFF" d="M228.2,294.5c-0.5,0.4-0.7,1.1-0.7,2.1v10.2c0,2.1,1.3,4.6,2.9,5.6l28.6,16.4c0.5,0.3,1,0.4,1.4,0.3
					c-0.5,0.5-1.3,0.6-2.2,0.1l-28.6-16.4c-1.6-0.9-2.9-3.4-2.9-5.6V297C226.7,295.5,227.3,294.6,228.2,294.5z"/>
				<g>
					<path fill="#396CAA" d="M249.6,318.1l-2.6-1.5c-0.4-0.2-0.6-0.7-0.6-1.2v-2.8c0-0.5,0.3-0.7,0.6-0.5l2.6,1.5
						c0.4,0.2,0.6,0.7,0.6,1.2v2.8C250.3,318.1,250,318.3,249.6,318.1z"/>
					<path fill="#FFFFFF" d="M240.9,313l-2.6-1.5c-0.4-0.2-0.6-0.7-0.6-1.2v-2.8c0-0.5,0.3-0.7,0.6-0.5l2.6,1.5
						c0.4,0.2,0.6,0.7,0.6,1.2v2.8C241.5,313,241.2,313.2,240.9,313z"/>
				</g>
			</g>
		</g>
		<g>
			<path fill="#5793CE" d="M283.1,281.7l66.1-38.1c1.5-0.9,2.7-3.1,2.7-5.1v-12.6c0-2-1.2-2.9-2.7-2L283.1,262
				c-1.5,0.9-2.7,3.1-2.7,5.1v12.6C280.4,281.7,281.6,282.6,283.1,281.7z"/>
			<path opacity="0.4" fill="#D4ECFF" d="M285,277.3l62.3-36c0.8-0.4,1.4-1.6,1.4-2.6v-9.5c0-1-0.6-1.5-1.4-1l-62.3,36
				c-0.8,0.4-1.4,1.6-1.4,2.6v9.5C283.6,277.3,284.2,277.7,285,277.3z"/>
			<path fill="#D4ECFF" d="M334.3,244.1l9.3-5.4c0.7-0.4,1.3-1.5,1.3-2.5l0,0c0-1-0.6-1.4-1.3-1l-9.3,5.4c-0.7,0.4-1.3,1.5-1.3,2.5
				l0,0C332.9,244,333.5,244.5,334.3,244.1z"/>
			<path fill="#173D7A" d="M326.3,246.9c0,1,0.7,1.4,1.5,0.9c0.8-0.5,1.5-1.7,1.5-2.6c0-1-0.7-1.4-1.5-0.9
				C327,244.7,326.3,245.9,326.3,246.9z"/>
			<path fill="#173D7A" d="M321,250c0,1,0.7,1.4,1.5,0.9c0.8-0.5,1.5-1.7,1.5-2.6c0-1-0.7-1.4-1.5-0.9C321.6,247.8,321,249,321,250z
				"/>
			<path fill="#D4ECFF" d="M315.6,253.1c0,1,0.7,1.4,1.5,0.9c0.8-0.5,1.5-1.7,1.5-2.6c0-1-0.7-1.4-1.5-0.9
				C316.3,250.9,315.6,252.1,315.6,253.1z"/>
			<path fill="#173D7A" d="M310.2,256.2c0,1,0.7,1.4,1.5,0.9c0.8-0.5,1.5-1.7,1.5-2.6c0-1-0.7-1.4-1.5-0.9S310.2,255.2,310.2,256.2z
				"/>
			<path fill="#173D7A" d="M287.6,272l3.1-1.8c0.5-0.3,0.8-1,0.8-1.6v-3.3c0-0.6-0.4-0.9-0.8-0.6l-3.1,1.8c-0.5,0.3-0.8,1-0.8,1.6
				v3.3C286.7,272,287.1,272.3,287.6,272z"/>
		</g>
		<g>
			<path fill="#5793CE" d="M283.1,303.9l66.1-38.1c1.5-0.9,2.7-3.1,2.7-5.1v-12.6c0-2-1.2-2.9-2.7-2l-66.1,38.1
				c-1.5,0.9-2.7,3.1-2.7,5.1v12.6C280.4,303.9,281.6,304.8,283.1,303.9z"/>
			<path opacity="0.4" fill="#D4ECFF" d="M285,299.5l62.3-36c0.8-0.4,1.4-1.6,1.4-2.6v-9.5c0-1-0.6-1.5-1.4-1l-62.3,36
				c-0.8,0.4-1.4,1.6-1.4,2.6v9.5C283.6,299.5,284.2,299.9,285,299.5z"/>
			<path fill="#D4ECFF" d="M334.3,266.3l9.3-5.4c0.7-0.4,1.3-1.5,1.3-2.5l0,0c0-1-0.6-1.4-1.3-1l-9.3,5.4c-0.7,0.4-1.3,1.5-1.3,2.5
				l0,0C332.9,266.2,333.5,266.7,334.3,266.3z"/>
			<path fill="#FFFFFF" d="M326.3,269.1c0,1,0.7,1.4,1.5,0.9c0.8-0.5,1.5-1.7,1.5-2.6c0-1-0.7-1.4-1.5-0.9
				C327,266.9,326.3,268.1,326.3,269.1z"/>
			<path fill="#173D7A" d="M321,272.2c0,1,0.7,1.4,1.5,0.9c0.8-0.5,1.5-1.7,1.5-2.6c0-1-0.7-1.4-1.5-0.9
				C321.6,270,321,271.2,321,272.2z"/>
			<path fill="#D4ECFF" d="M315.6,275.3c0,1,0.7,1.4,1.5,0.9c0.8-0.5,1.5-1.7,1.5-2.6c0-1-0.7-1.4-1.5-0.9
				C316.3,273.1,315.6,274.3,315.6,275.3z"/>
			<path fill="#173D7A" d="M310.2,278.4c0,1,0.7,1.4,1.5,0.9c0.8-0.5,1.5-1.7,1.5-2.6c0-1-0.7-1.4-1.5-0.9S310.2,277.4,310.2,278.4z
				"/>
			<path fill="#173D7A" d="M287.6,294.2l3.1-1.8c0.5-0.3,0.8-1,0.8-1.6v-3.3c0-0.6-0.4-0.9-0.8-0.6l-3.1,1.8c-0.5,0.3-0.8,1-0.8,1.6
				v3.3C286.7,294.2,287.1,294.5,287.6,294.2z"/>
		</g>
		<g>
			<path fill="#5793CE" d="M283.1,326.1l66.1-38.1c1.5-0.9,2.7-3.1,2.7-5.1v-12.6c0-2-1.2-2.9-2.7-2l-66.1,38.1
				c-1.5,0.9-2.7,3.1-2.7,5.1v12.6C280.4,326.1,281.6,327,283.1,326.1z"/>
			<path opacity="0.4" fill="#D4ECFF" d="M285,321.7l62.3-36c0.8-0.4,1.4-1.6,1.4-2.6v-9.5c0-1-0.6-1.5-1.4-1l-62.3,36
				c-0.8,0.4-1.4,1.6-1.4,2.6v9.5C283.6,321.7,284.2,322.2,285,321.7z"/>
			<path fill="#D4ECFF" d="M334.3,288.5l9.3-5.4c0.7-0.4,1.3-1.5,1.3-2.5l0,0c0-1-0.6-1.4-1.3-1l-9.3,5.4c-0.7,0.4-1.3,1.5-1.3,2.5
				l0,0C332.9,288.5,333.5,288.9,334.3,288.5z"/>
			<path fill="#FFFFFF" d="M326.3,291.3c0,1,0.7,1.4,1.5,0.9c0.8-0.5,1.5-1.7,1.5-2.6c0-1-0.7-1.4-1.5-0.9
				C327,289.1,326.3,290.3,326.3,291.3z"/>
			<path fill="#173D7A" d="M321,294.4c0,1,0.7,1.4,1.5,0.9c0.8-0.5,1.5-1.7,1.5-2.6c0-1-0.7-1.4-1.5-0.9
				C321.6,292.2,321,293.4,321,294.4z"/>
			<path fill="#D4ECFF" d="M315.6,297.5c0,1,0.7,1.4,1.5,0.9c0.8-0.5,1.5-1.7,1.5-2.6c0-1-0.7-1.4-1.5-0.9S315.6,296.5,315.6,297.5z
				"/>
			<path fill="#173D7A" d="M310.2,300.6c0,1,0.7,1.4,1.5,0.9c0.8-0.5,1.5-1.7,1.5-2.6c0-1-0.7-1.4-1.5-0.9S310.2,299.6,310.2,300.6z
				"/>
			<path fill="#173D7A" d="M287.6,316.5l3.1-1.8c0.5-0.3,0.8-1,0.8-1.6v-3.3c0-0.6-0.4-0.9-0.8-0.6l-3.1,1.8c-0.5,0.3-0.8,1-0.8,1.6
				v3.3C286.7,316.4,287.1,316.7,287.6,316.5z"/>
		</g>
		<g>
			<path fill="#5793CE" d="M283.1,348.4l66.1-38.1c1.5-0.9,2.7-3.1,2.7-5.1v-12.6c0-2-1.2-2.9-2.7-2l-66.1,38.1
				c-1.5,0.9-2.7,3.1-2.7,5.1v12.6C280.4,348.3,281.6,349.2,283.1,348.4z"/>
			<path opacity="0.4" fill="#D4ECFF" d="M285,343.9l62.3-36c0.8-0.4,1.4-1.6,1.4-2.6v-9.5c0-1-0.6-1.5-1.4-1l-62.3,36
				c-0.8,0.4-1.4,1.6-1.4,2.6v9.5C283.6,343.9,284.2,344.4,285,343.9z"/>
			<path fill="#D4ECFF" d="M334.3,310.7l9.3-5.4c0.7-0.4,1.3-1.5,1.3-2.5l0,0c0-1-0.6-1.4-1.3-1l-9.3,5.4c-0.7,0.4-1.3,1.5-1.3,2.5
				l0,0C332.9,310.7,333.5,311.1,334.3,310.7z"/>
			<path fill="#173D7A" d="M326.3,313.5c0,1,0.7,1.4,1.5,0.9c0.8-0.5,1.5-1.7,1.5-2.6c0-1-0.7-1.4-1.5-0.9
				C327,311.4,326.3,312.5,326.3,313.5z"/>
			<path fill="#173D7A" d="M321,316.6c0,1,0.7,1.4,1.5,0.9c0.8-0.5,1.5-1.7,1.5-2.6c0-1-0.7-1.4-1.5-0.9
				C321.6,314.5,321,315.6,321,316.6z"/>
			<path fill="#D4ECFF" d="M315.6,319.7c0,1,0.7,1.4,1.5,0.9c0.8-0.5,1.5-1.7,1.5-2.6c0-1-0.7-1.4-1.5-0.9S315.6,318.7,315.6,319.7z
				"/>
			<path fill="#173D7A" d="M310.2,322.8c0,1,0.7,1.4,1.5,0.9s1.5-1.7,1.5-2.6c0-1-0.7-1.4-1.5-0.9
				C310.9,320.7,310.2,321.8,310.2,322.8z"/>
			<path fill="#D4ECFF" d="M287.6,338.7l3.1-1.8c0.5-0.3,0.8-1,0.8-1.6v-3.3c0-0.6-0.4-0.9-0.8-0.6l-3.1,1.8c-0.5,0.3-0.8,1-0.8,1.6
				v3.3C286.7,338.7,287.1,338.9,287.6,338.7z"/>
		</g>
		<g>
			<path fill="#5793CE" d="M283.1,370.6l66.1-38.1c1.5-0.9,2.7-3.1,2.7-5.1v-12.6c0-2-1.2-2.9-2.7-2l-66.1,38.1
				c-1.5,0.9-2.7,3.1-2.7,5.1v12.6C280.4,370.5,281.6,371.4,283.1,370.6z"/>
			<path opacity="0.4" fill="#D4ECFF" d="M285,366.2l62.3-36c0.8-0.4,1.4-1.6,1.4-2.6v-9.5c0-1-0.6-1.5-1.4-1l-62.3,36
				c-0.8,0.4-1.4,1.6-1.4,2.6v9.5C283.6,366.1,284.2,366.6,285,366.2z"/>
			<path fill="#D4ECFF" d="M334.3,332.9l9.3-5.4c0.7-0.4,1.3-1.5,1.3-2.5l0,0c0-1-0.6-1.4-1.3-1l-9.3,5.4c-0.7,0.4-1.3,1.5-1.3,2.5
				l0,0C332.9,332.9,333.5,333.3,334.3,332.9z"/>
			<path fill="#173D7A" d="M326.3,335.7c0,1,0.7,1.4,1.5,0.9c0.8-0.5,1.5-1.7,1.5-2.6c0-1-0.7-1.4-1.5-0.9
				C327,333.6,326.3,334.8,326.3,335.7z"/>
			<path fill="#FFFFFF" d="M321,338.8c0,1,0.7,1.4,1.5,0.9c0.8-0.5,1.5-1.7,1.5-2.6c0-1-0.7-1.4-1.5-0.9
				C321.6,336.7,321,337.9,321,338.8z"/>
			<path fill="#D4ECFF" d="M315.6,341.9c0,1,0.7,1.4,1.5,0.9c0.8-0.5,1.5-1.7,1.5-2.6c0-1-0.7-1.4-1.5-0.9
				C316.3,339.8,315.6,341,315.6,341.9z"/>
			<path fill="#FFFFFF" d="M310.2,345c0,1,0.7,1.4,1.5,0.9s1.5-1.7,1.5-2.6c0-1-0.7-1.4-1.5-0.9C310.9,342.9,310.2,344.1,310.2,345z
				"/>
			<path fill="#D4ECFF" d="M287.6,360.9l3.1-1.8c0.5-0.3,0.8-1,0.8-1.6v-3.3c0-0.6-0.4-0.9-0.8-0.6l-3.1,1.8c-0.5,0.3-0.8,1-0.8,1.6
				v3.3C286.7,360.9,287.1,361.2,287.6,360.9z"/>
		</g>
		<g>
			<path fill="#5793CE" d="M283.1,392.8l66.1-38.1c1.5-0.9,2.7-3.1,2.7-5.1v-12.6c0-2-1.2-2.9-2.7-2l-66.1,38.1
				c-1.5,0.9-2.7,3.1-2.7,5.1v12.6C280.4,392.7,281.6,393.6,283.1,392.8z"/>
			<path opacity="0.4" fill="#D4ECFF" d="M285,388.4l62.3-36c0.8-0.4,1.4-1.6,1.4-2.6v-9.5c0-1-0.6-1.5-1.4-1l-62.3,36
				c-0.8,0.4-1.4,1.6-1.4,2.6v9.5C283.6,388.3,284.2,388.8,285,388.4z"/>
			<path fill="#D4ECFF" d="M334.3,355.1l9.3-5.4c0.7-0.4,1.3-1.5,1.3-2.5l0,0c0-1-0.6-1.4-1.3-1l-9.3,5.4c-0.7,0.4-1.3,1.5-1.3,2.5
				l0,0C332.9,355.1,333.5,355.5,334.3,355.1z"/>
			<path fill="#173D7A" d="M326.3,357.9c0,1,0.7,1.4,1.5,0.9c0.8-0.5,1.5-1.7,1.5-2.6c0-1-0.7-1.4-1.5-0.9
				C327,355.8,326.3,357,326.3,357.9z"/>
			<path fill="#173D7A" d="M321,361c0,1,0.7,1.4,1.5,0.9c0.8-0.5,1.5-1.7,1.5-2.6c0-1-0.7-1.4-1.5-0.9
				C321.6,358.9,321,360.1,321,361z"/>
			<path fill="#D4ECFF" d="M315.6,364.1c0,1,0.7,1.4,1.5,0.9c0.8-0.5,1.5-1.7,1.5-2.6c0-1-0.7-1.4-1.5-0.9
				C316.3,362,315.6,363.2,315.6,364.1z"/>
			<path fill="#173D7A" d="M310.2,367.2c0,1,0.7,1.4,1.5,0.9s1.5-1.7,1.5-2.6c0-1-0.7-1.4-1.5-0.9
				C310.9,365.1,310.2,366.3,310.2,367.2z"/>
			<path fill="#173D7A" d="M287.6,383.1l3.1-1.8c0.5-0.3,0.8-1,0.8-1.6v-3.3c0-0.6-0.4-0.9-0.8-0.6l-3.1,1.8c-0.5,0.3-0.8,1-0.8,1.6
				v3.3C286.7,383.1,287.1,383.4,287.6,383.1z"/>
		</g>
		<g>
			<path fill="#5793CE" d="M283.1,415l66.1-38.1c1.5-0.9,2.7-3.1,2.7-5.1v-12.6c0-2-1.2-2.9-2.7-2l-66.1,38.1
				c-1.5,0.9-2.7,3.1-2.7,5.1V413C280.4,415,281.6,415.9,283.1,415z"/>
			<path opacity="0.4" fill="#D4ECFF" d="M285,410.6l62.3-36c0.8-0.4,1.4-1.6,1.4-2.6v-9.5c0-1-0.6-1.5-1.4-1l-62.3,36
				c-0.8,0.4-1.4,1.6-1.4,2.6v9.5C283.6,410.6,284.2,411,285,410.6z"/>
			<path fill="#D4ECFF" d="M334.3,377.3l9.3-5.4c0.7-0.4,1.3-1.5,1.3-2.5l0,0c0-1-0.6-1.4-1.3-1l-9.3,5.4c-0.7,0.4-1.3,1.5-1.3,2.5
				l0,0C332.9,377.3,333.5,377.8,334.3,377.3z"/>
			<path fill="#FFFFFF" d="M324.6,381.4c0,1.8,1.3,2.6,2.9,1.7c1.6-0.9,2.9-3.1,2.9-5c0-1.8-1.3-2.6-2.9-1.7
				C325.9,377.3,324.6,379.5,324.6,381.4z"/>
			<path fill="#173D7A" d="M313.5,387.9c0,1,0.7,1.4,1.5,0.9c0.8-0.5,1.5-1.7,1.5-2.6s-0.7-1.4-1.5-0.9S313.5,386.9,313.5,387.9z"/>
			<path fill="#D4ECFF" d="M308.1,391c0,1,0.7,1.4,1.5,0.9c0.8-0.5,1.5-1.7,1.5-2.6c0-1-0.7-1.4-1.5-0.9
				C308.8,388.8,308.1,390,308.1,391z"/>
			<path fill="#173D7A" d="M302.8,394.1c0,1,0.7,1.4,1.5,0.9c0.8-0.5,1.5-1.7,1.5-2.6s-0.7-1.4-1.5-0.9S302.8,393.1,302.8,394.1z"/>
			<path fill="#D4ECFF" d="M287.6,405.3l3.1-1.8c0.5-0.3,0.8-1,0.8-1.6v-3.3c0-0.6-0.4-0.9-0.8-0.6l-3.1,1.8c-0.5,0.3-0.8,1-0.8,1.6
				v3.3C286.7,405.3,287.1,405.6,287.6,405.3z"/>
		</g>
	</g>
	<path fill="#D4ECFF" d="M304.9,132.6l75.6-43.1c2.8-1.6,2.4-4.4-0.8-6.2l-43.5-25.1c-3.2-1.8-8-2-10.8-0.4l-75.6,43.1
		c-2.8,1.6-2.4,4.4,0.8,6.2l43.5,25.1C297.3,134,302.2,134.2,304.9,132.6z"/>
	<path fill="#D4ECFF" d="M183.5,202.5l75.6-43.1c2.8-1.6,2.4-4.4-0.8-6.2L214.9,128c-3.2-1.8-8-2-10.8-0.4l-75.6,43.1
		c-2.8,1.6-2.4,4.4,0.8,6.2l43.5,25.1C175.9,203.9,180.8,204.1,183.5,202.5z"/>
	<path fill="#D4ECFF" d="M399,186.7l75.6-43.1c2.8-1.6,2.4-4.4-0.8-6.2l-43.5-25.1c-3.2-1.8-8-2-10.8-0.4l-75.6,43.1
		c-2.8,1.6-2.4,4.4,0.8,6.2l43.5,25.1C391.4,188.1,396.2,188.3,399,186.7z"/>
	<path opacity="0.5" fill="#173D7A" d="M325.5,57.7l-49.6,28.3l45.4,26.2l54.3-31.3l-39.4-22.7C333.1,56.3,328.3,56.1,325.5,57.7z"
		/>
	<g>
		<g>
			<g>
				<path fill="#173D7A" d="M378.7,52.2l-8.4-4.8l30.9-17.8c1.5-0.8,1.5-2.2,0-3.1L369.6,8.2c-1.5-0.8-3.8-0.8-5.3,0l-30.9,17.8
					l-8.4-4.8L356,3.4c6.1-3.5,16-3.5,22,0l31.5,18.2c6.1,3.5,6.1,9.2,0,12.7L378.7,52.2z"/>
			</g>
			<g>
				<path fill="#D4ECFF" d="M392.2,54.3c0-4.5-2.7-9.7-6.1-11.6l-56-32.3c-1.5-0.9-2.9-0.9-3.9-0.3l0,0l-66.8,38.8L324,97.5
					l65.8-38.2c0.2-0.1,0.4-0.2,0.6-0.3l0,0l0,0C391.5,58.2,392.2,56.5,392.2,54.3z"/>
				<path fill="#396CAA" d="M324,97.5l65.8-38.2c0.2-0.1,0.4-0.2,0.6-0.3l0,0l0,0c1.1-0.8,1.8-2.5,1.8-4.7c0-2.1-0.6-4.4-1.6-6.5
					l-75,43.3L324,97.5z"/>
				<path fill="#5793CE" d="M319.8,97.4l-56-32.3c-3.4-1.9-6.1-7.1-6.1-11.6l0,0c0-4.5,2.7-6.5,6.1-4.6l56,32.3
					c3.4,1.9,6.1,7.1,6.1,11.6l0,0C325.9,97.3,323.2,99.3,319.8,97.4z"/>
				<path fill="#FFFFFF" d="M320.5,80.9l-56-32.3c-1.5-0.9-2.9-0.9-4-0.3c1-0.3,2.1-0.1,3.3,0.6l56,32.3c3.4,1.9,6.1,7.1,6.1,11.6v0
					c0,2.4-0.8,4.1-2.1,4.9c1.6-0.5,2.7-2.4,2.7-5.2v0C326.6,88,323.8,82.8,320.5,80.9z"/>
			</g>
			<path fill="#FFFFFF" d="M311.4,86.5l-6.7-3.9c-0.7-0.4-1.2-1.4-1.2-2.3l0,0c0-0.9,0.5-1.3,1.2-0.9l6.7,3.9
				c0.7,0.4,1.2,1.4,1.2,2.3l0,0C312.6,86.5,312.1,86.9,311.4,86.5z"/>
		</g>
		<g>
			<path fill="#5793CE" d="M319,40.6c2-1.2,2-3.1,0-4.3c-2.1-1.2-5.4-1.1-7.4,0.1s-2,3.1,0,4.3C313.7,41.8,317,41.8,319,40.6z"/>
			<path fill="#FFFFFF" d="M330.3,46.9c2-1.2,2-3.1,0-4.3c-2.1-1.2-5.4-1.1-7.4,0.1c-2,1.2-2,3.1,0,4.3
				C324.9,48.1,328.3,48.1,330.3,46.9z"/>
			<path fill="#FFFFFF" d="M341.6,53.2c2-1.2,2-3.1,0-4.3c-2.1-1.2-5.4-1.1-7.4,0.1c-2,1.2-2,3.1,0,4.3
				C336.2,54.5,339.5,54.4,341.6,53.2z"/>
		</g>
	</g>
	<g>
		<g>
			<polygon opacity="0.5" fill="#173D7A" points="123.8,448.8 103.7,437.2 123.8,425.6 143.9,437.2 			"/>
			<polygon fill="#173D7A" points="143.9,422.5 123.8,434.1 123.8,410.9 143.9,399.3 			"/>
			<polygon fill="#D4ECFF" points="123.8,410.9 103.7,399.3 123.8,387.7 143.9,399.3 			"/>
			<polygon fill="#5793CE" points="123.8,434.1 103.7,422.5 103.7,399.3 123.8,410.9 			"/>
		</g>
		<polygon fill="#FFFFFF" points="116.6,421.6 111,418.3 111,411.8 116.6,415.1 		"/>
	</g>
	<g>
		<g>
			<polygon opacity="0.5" fill="#173D7A" points="459,445.9 439,434.3 459,422.7 479.1,434.3 			"/>
			<polygon fill="#173D7A" points="479.1,419.6 459,431.1 459,408 479.1,396.4 			"/>
			<polygon fill="#D4ECFF" points="459,408 439,396.4 459,384.8 479.1,396.4 			"/>
			<polygon fill="#5793CE" points="459,431.1 439,419.6 439,396.4 459,408 			"/>
		</g>
		<polygon fill="#FFFFFF" points="451.8,418.6 446.2,415.4 446.2,408.9 451.8,412.1 		"/>
	</g>
	<path fill="#173D7A" d="M215.6,153.9c-1.1-0.6-2.8-0.6-3.9,0l-37.1,21.4c-1.1,0.6-1.1,1.6,0,2.3c1.1,0.6,2.8,0.6,3.9,0l37.1-21.4
		C216.7,155.5,216.7,154.5,215.6,153.9z"/>
</g>
</svg>
